<?xml version="1.0" encoding="utf-8"?>
<!-- Generator: Adobe Illustrator 27.1.0, SVG Export Plug-In . SVG Version: 6.00 Build 0)  -->
<svg version="1.1" id="Layer_1" xmlns="http://www.w3.org/2000/svg" xmlns:xlink="http://www.w3.org/1999/xlink" x="0px" y="0px"
	 viewBox="0 0 380.1 303" style="enable-background:new 0 0 380.1 303;" xml:space="preserve">
<style type="text/css">
	.st0{fill:#F2F1FF;}
	.st1{fill:#FFFFFF;}
	.st2{fill:url(#SVGID_1_);}
	.st3{fill:url(#SVGID_00000060011549596876990150000015917994116631602568_);}
	.st4{fill:url(#SVGID_00000015324055830422024410000002563878443981030576_);}
	.st5{clip-path:url(#SVGID_00000179608484278328661950000014066188971957384635_);}
	.st6{opacity:0.4;}
	.st7{fill:#909CFF;}
	.st8{fill:url(#SVGID_00000114050498439678207400000006434141023226717861_);}
	.st9{clip-path:url(#SVGID_00000031185212537231273030000002912383691008655023_);}
	.st10{fill:url(#SVGID_00000043425398364789887820000012320030645423768493_);}
	.st11{clip-path:url(#SVGID_00000110452304127436193360000007944262656447437712_);}
	.st12{opacity:0.8;}
	.st13{opacity:0.7;}
	.st14{fill:url(#SVGID_00000183966147899235270080000003461907774672381578_);}
	.st15{clip-path:url(#SVGID_00000145037949939589239040000004298163945864650150_);}
	.st16{opacity:0.9;}
	.st17{fill:url(#SVGID_00000108998768185105109150000009165908673208378264_);}
	.st18{clip-path:url(#SVGID_00000156570758640398132240000010642415955524333481_);}
	.st19{fill:url(#SVGID_00000108284300976546223380000016747265885004105089_);}
	.st20{clip-path:url(#SVGID_00000119819429512733440200000004854246440108941716_);}
	.st21{fill:url(#SVGID_00000122704090427413121510000014900974285656876213_);}
	.st22{clip-path:url(#SVGID_00000178902608298634130880000001814826875715312529_);}
	.st23{fill:url(#SVGID_00000164481396315972646080000016564701584592692389_);}
	.st24{clip-path:url(#SVGID_00000120554857105930733940000010295292095287537537_);}
	.st25{clip-path:url(#SVGID_00000083803613704074127060000001169338522900199579_);}
	.st26{fill:url(#SVGID_00000173145481601850521760000001469522462600100766_);}
	.st27{fill:url(#SVGID_00000132768448923435662990000008533963735450866057_);}
	.st28{clip-path:url(#SVGID_00000109708929719732591920000000508020605277261495_);}
	.st29{opacity:0.3;}
	.st30{clip-path:url(#SVGID_00000145056300554497723630000005829065952129531069_);}
	.st31{fill:url(#SVGID_00000160880490624871159720000010895211966558150530_);}
	.st32{fill:url(#SVGID_00000059272320488594878320000005498294976340273541_);}
	.st33{clip-path:url(#SVGID_00000090986429056716852060000007514884789944753324_);}
	.st34{fill:url(#SVGID_00000013914698184948879490000004578162737201156240_);}
	.st35{clip-path:url(#SVGID_00000036933812662278989130000012080345826037268870_);}
	.st36{fill:url(#SVGID_00000155836326888573574460000012527857273968732082_);}
	.st37{fill:url(#SVGID_00000077282775229501302700000007223015893841242775_);}
	.st38{fill:url(#SVGID_00000119836254423067910020000003289348059742719632_);}
	.st39{fill:url(#SVGID_00000018936702664691605380000014714250827195715519_);}
	.st40{clip-path:url(#SVGID_00000034805423938065575300000002240951559579159202_);}
	.st41{fill:url(#SVGID_00000051365335545234707420000008783365817175746194_);}
	.st42{clip-path:url(#SVGID_00000075865808780240078780000014021814839250998418_);}
	.st43{clip-path:url(#SVGID_00000132060989605506542680000013402718026386604681_);}
	.st44{opacity:0.5;}
	.st45{clip-path:url(#SVGID_00000058551697090515003160000002545288419798943366_);}
	.st46{fill:url(#SVGID_00000065783728550225850380000005982716963765419960_);}
	.st47{fill:#A2C4FF;}
	.st48{fill:url(#SVGID_00000011711419719656434770000005856735901088875143_);}
	.st49{fill:url(#SVGID_00000108997332189863440840000000918874127075527587_);}
	.st50{fill:url(#SVGID_00000051385067403287969280000010219587461612930960_);}
	.st51{fill:url(#SVGID_00000067226372950583031350000000942130191143240082_);}
	.st52{fill:url(#SVGID_00000008148420494914260840000004510702034845450168_);}
	.st53{fill:url(#SVGID_00000103226561690434810630000009919292301043382158_);}
	.st54{fill:#FFFEFF;}
	.st55{fill:url(#SVGID_00000114782645073360178310000017941981333838938528_);}
	.st56{clip-path:url(#SVGID_00000096749231696031576330000006113134425596333709_);}
	.st57{clip-path:url(#SVGID_00000154401734752620270650000018306103475984095413_);}
	.st58{fill:url(#SVGID_00000151533295521012007450000016733261490607244699_);}
</style>
<g>
	<g id="Layer_2_00000000938081266346886880000008504595558978950272_">
		<g id="OBJECTS">
			<g>
				<path class="st0" d="M142.6,29.2h50.9c2,0,3.7,1.7,3.7,3.7v5c0,2-1.7,3.7-3.7,3.7h-50.9c-2,0-3.7-1.7-3.7-3.7v-5
					C138.9,30.9,140.5,29.2,142.6,29.2z"/>
				<g>
					<path class="st1" d="M66.8,74h239.6c7.1,0,12.9,5.8,12.9,12.9v104.3c0,7.1-5.8,12.9-12.9,12.9H66.8c-7.1,0-12.9-5.8-12.9-12.9
						V86.9C53.9,79.8,59.7,74,66.8,74z"/>
					<path class="st0" d="M304.1,75.4h-235c-7.1,0-12.9,5.8-12.9,12.9v44.4c0,1.9,1.2,3.5,2.9,4.1l0,0c0.9,0.3,1.5,1.2,1.5,2.2l0,0
						c0,1-0.6,1.8-1.5,2.2l0,0c-1.7,0.6-2.9,2.2-2.9,4.1v44.4c0,7.1,5.8,12.9,12.9,12.9h235c7.1,0,12.9-5.8,12.9-12.9V88.4
						C317,81.2,311.3,75.4,304.1,75.4z"/>
					
						<linearGradient id="SVGID_1_" gradientUnits="userSpaceOnUse" x1="161.1467" y1="221.7934" x2="122.6567" y2="108.3334" gradientTransform="matrix(1 0 0 -1 0 306)">
						<stop  offset="0" style="stop-color:#84EEEB"/>
						<stop  offset="1" style="stop-color:#3AE4DF"/>
					</linearGradient>
					<path class="st2" d="M225.2,75.4H69.1c-7.1,0-12.9,5.8-12.9,12.9v44.4c0,1.9,1.2,3.5,2.9,4.1c0.9,0.3,1.5,1.2,1.5,2.2l0,0
						c0,1-0.6,1.8-1.5,2.2l0,0c-1.7,0.6-2.9,2.2-2.9,4.1v44.4c0,7.1,5.8,12.9,12.9,12.9h156.1L225.2,75.4L225.2,75.4z"/>
				</g>
				<g>
					<g>
						<path class="st1" d="M236.2,96.2h31c2,0,3.7,1.7,3.7,3.7v21c0,2-1.7,3.7-3.7,3.7h-31c-2,0-3.7-1.7-3.7-3.7v-21
							C232.5,97.9,234.2,96.2,236.2,96.2z"/>
						<path class="st1" d="M305.7,103h-25c-1,0-1.8-0.8-1.8-1.8s0.8-1.8,1.8-1.8h25c1,0,1.8,0.8,1.8,1.8S306.7,103,305.7,103z"/>
						<path class="st1" d="M305.7,112.3h-25c-1,0-1.8-0.8-1.8-1.8s0.8-1.8,1.8-1.8h25c1,0,1.8,0.8,1.8,1.8S306.7,112.3,305.7,112.3z
							"/>
						<path class="st1" d="M293.6,121.6h-12.9c-1,0-1.8-0.8-1.8-1.8s0.8-1.8,1.8-1.8h12.9c1,0,1.8,0.8,1.8,1.8
							S294.6,121.6,293.6,121.6z"/>
					</g>
					<g>
						<path class="st1" d="M236.2,131.6h31c2,0,3.7,1.7,3.7,3.7v21c0,2-1.7,3.7-3.7,3.7h-31c-2,0-3.7-1.7-3.7-3.7v-21
							C232.5,133.3,234.2,131.6,236.2,131.6z"/>
						<path class="st1" d="M305.7,138.4h-25c-1,0-1.8-0.8-1.8-1.8s0.8-1.8,1.8-1.8h25c1,0,1.8,0.8,1.8,1.8S306.7,138.4,305.7,138.4z
							"/>
						<path class="st1" d="M305.7,147.7h-25c-1,0-1.8-0.8-1.8-1.8s0.8-1.8,1.8-1.8h25c1,0,1.8,0.8,1.8,1.8S306.7,147.7,305.7,147.7z
							"/>
						<path class="st1" d="M293.6,157h-12.9c-1,0-1.8-0.8-1.8-1.8s0.8-1.8,1.8-1.8h12.9c1,0,1.8,0.8,1.8,1.8S294.6,157,293.6,157z"
							/>
					</g>
					<g>
						<path class="st1" d="M236.2,167h31c2,0,3.7,1.7,3.7,3.7v21c0,2-1.7,3.7-3.7,3.7h-31c-2,0-3.7-1.7-3.7-3.7v-21
							C232.5,168.7,234.2,167,236.2,167z"/>
						<path class="st1" d="M305.7,173.7h-25c-1,0-1.8-0.8-1.8-1.8s0.8-1.8,1.8-1.8h25c1,0,1.8,0.8,1.8,1.8S306.7,173.7,305.7,173.7z
							"/>
						<path class="st1" d="M305.7,183h-25c-1,0-1.8-0.8-1.8-1.8s0.8-1.8,1.8-1.8h25c1,0,1.8,0.8,1.8,1.8S306.7,183,305.7,183z"/>
						<path class="st1" d="M293.6,192.3h-12.9c-1,0-1.8-0.8-1.8-1.8s0.8-1.8,1.8-1.8h12.9c1,0,1.8,0.8,1.8,1.8
							S294.6,192.3,293.6,192.3z"/>
					</g>
				</g>
				<g>
					
						<linearGradient id="SVGID_00000074435558198700416890000011354542989979193246_" gradientUnits="userSpaceOnUse" x1="158.5909" y1="192.8357" x2="122.3109" y2="138.6557" gradientTransform="matrix(1 0 0 -1 3.030002e-03 305.9985)">
						<stop  offset="0.39" style="stop-color:#7B9AF2"/>
						<stop  offset="0.51" style="stop-color:#5352EE"/>
						<stop  offset="0.63" style="stop-color:#3130C8"/>
					</linearGradient>
					<circle style="fill:url(#SVGID_00000074435558198700416890000011354542989979193246_);" cx="140.6" cy="140" r="32.3"/>
					
						<linearGradient id="SVGID_00000000185253048191008040000013278986141542171578_" gradientUnits="userSpaceOnUse" x1="158.2374" y1="192.7514" x2="123.1274" y2="139.4214" gradientTransform="matrix(1 0 0 -1 0 306)">
						<stop  offset="0" style="stop-color:#636FF0"/>
						<stop  offset="1" style="stop-color:#5352EE"/>
					</linearGradient>
					<path style="fill:url(#SVGID_00000000185253048191008040000013278986141542171578_);" d="M140.6,171.7
						c-17.5,0-31.8-14.2-31.8-31.8s14.2-31.7,31.8-31.7s31.8,14.2,31.8,31.7S158.2,171.7,140.6,171.7z"/>
					<polygon class="st0" points="158.6,140.3 145.1,148.1 131.6,155.9 131.6,140.3 131.6,124.7 145.1,132.5 					"/>
				</g>
				<g>
					<g>
						<defs>
							<rect id="SVGID_00000173842394634488697620000015124645315024308413_" x="143.4" y="151.7" width="140.3" height="52.3"/>
						</defs>
						<clipPath id="SVGID_00000080194187666805100900000017969803898992842174_">
							<use xlink:href="#SVGID_00000173842394634488697620000015124645315024308413_"  style="overflow:visible;"/>
						</clipPath>
						<g style="clip-path:url(#SVGID_00000080194187666805100900000017969803898992842174_);">
							<g class="st6">
								
									<image style="overflow:visible;enable-background:new    ;" width="538" height="469" xlink:href="EC26BC6E.png"  transform="matrix(0.48 0 0 0.48 87.3419 95.925)">
								</image>
							</g>
						</g>
					</g>
					<g>
						<path class="st1" d="M180.8,164H271c2,0,3.7,1.7,3.7,3.7v56.8c0,2-1.7,3.7-3.7,3.7h-90.1c-2,0-3.7-1.7-3.7-3.7v-56.8
							C177.2,165.6,178.8,164,180.8,164z"/>
						<rect x="180.8" y="167.7" class="st7" width="90.1" height="56.8"/>
						
							<linearGradient id="SVGID_00000057852519436157582040000001899994313479948930_" gradientUnits="userSpaceOnUse" x1="238.5835" y1="118.3944" x2="221.0535" y2="71.0044" gradientTransform="matrix(1 0 0 -1 0 306)">
							<stop  offset="0" style="stop-color:#636FF0"/>
							<stop  offset="1" style="stop-color:#5352EE"/>
						</linearGradient>
						<polygon style="fill:url(#SVGID_00000057852519436157582040000001899994313479948930_);" points="249.9,194.5 239.3,209.5 
							234.5,216.3 224.5,202.1 208.7,179.7 180.8,219.3 180.8,224.5 271,224.5 						"/>
						<path class="st1" d="M241.4,184c0,3.8-3.1,6.9-6.9,6.9s-6.9-3.1-6.9-6.9s3.1-6.9,6.9-6.9S241.4,180.2,241.4,184z"/>
					</g>
				</g>
				<g>
					<g>
						<defs>
							<rect id="SVGID_00000152964075044425547150000011432949372263410053_" x="292.2" y="98" width="27.1" height="41.8"/>
						</defs>
						<clipPath id="SVGID_00000121957865832075827480000017173814880214943618_">
							<use xlink:href="#SVGID_00000152964075044425547150000011432949372263410053_"  style="overflow:visible;"/>
						</clipPath>
						<g style="clip-path:url(#SVGID_00000121957865832075827480000017173814880214943618_);">
							<g class="st6">
								
									<image style="overflow:visible;enable-background:new    ;" width="367" height="366" xlink:href="EC26BC72.png"  transform="matrix(0.4787 0 0 0.4787 229.9026 33.525)">
								</image>
							</g>
						</g>
					</g>
					<g>
						
							<radialGradient id="SVGID_00000096770886314680524280000002367766016272708799_" cx="323.5819" cy="192.045" r="13.55" gradientTransform="matrix(1 0 0 -1 0 306)" gradientUnits="userSpaceOnUse">
							<stop  offset="0.43" style="stop-color:#64EAE6"/>
							<stop  offset="0.55" style="stop-color:#67EAE6"/>
							<stop  offset="0.66" style="stop-color:#71EBE8"/>
							<stop  offset="0.75" style="stop-color:#83EEEA"/>
							<stop  offset="0.85" style="stop-color:#9BF1EE"/>
							<stop  offset="0.94" style="stop-color:#BAF5F3"/>
							<stop  offset="0.97" style="stop-color:#CAF8F6"/>
						</radialGradient>
						<path style="fill:url(#SVGID_00000096770886314680524280000002367766016272708799_);" d="M335.5,114.1
							C335.5,114.1,335.5,114,335.5,114.1c0-0.1,0-0.4-0.1-0.8c0,0,0-0.1,0-0.1c0-0.1,0-0.1,0-0.2c-0.2-1.4-0.7-2.7-1.5-3.9l0,0
							c-0.1-0.1-0.2-0.2-0.2-0.4l0,0c-0.4-0.6-0.9-1.2-1.4-1.7c-0.2-0.2-0.5-0.5-0.8-0.7c-0.2-0.1-0.4-0.3-0.5-0.4c0,0,0,0,0,0l0,0
							c0,0-0.1,0-0.1-0.1c-0.1-0.1-0.2-0.2-0.4-0.2l0,0c0,0,0,0,0,0c-0.1,0-0.1-0.1-0.2-0.1c0,0-0.1,0-0.1-0.1s0,0-0.1-0.1
							c0,0,0,0-0.1,0c-0.4-0.2-0.9-0.4-1.3-0.6c-0.1-0.1-0.2-0.1-0.3-0.1l-0.1,0l-0.1,0c0,0,0,0,0,0h0c0,0-0.1,0-0.1-0.1h0
							c0,0,0,0,0,0l-0.1,0c0,0-0.1,0-0.1,0l-0.1,0c0,0,0,0-0.1,0c0,0,0,0,0,0c0,0,0,0,0,0c0,0,0,0,0,0l-0.1,0c0,0-0.1,0-0.1,0
							s-0.1,0-0.1,0l0,0c0,0,0,0-0.1,0c0,0-0.1,0-0.1,0l-0.1,0c0,0-0.1,0-0.1,0c0,0,0,0,0,0c0,0,0,0-0.1,0h0l-0.1,0l0,0h0
							c0,0,0,0,0,0c0,0-0.1,0-0.1,0c0,0,0,0-0.1,0l0,0c0,0-0.1,0-0.1,0h-0.1c0,0,0,0,0,0s0,0-0.1,0c0,0,0,0-0.1,0c0,0-0.1,0-0.1,0
							h-0.1c0,0,0,0,0,0l0,0c0,0-0.1,0-0.1,0c0,0-0.1,0-0.1,0c0,0-0.1,0-0.1,0c0,0-0.1,0-0.1,0c0,0-0.1,0-0.1,0c0,0,0,0-0.1,0h-0.1
							c0,0,0,0,0,0s0,0-0.1,0c-0.2,0-0.4,0-0.6,0c0,0-0.1,0-0.1,0c0,0-0.1,0-0.1,0c0,0-0.1,0-0.1,0c-0.1,0-0.1,0-0.2,0
							c0,0,0,0-0.1,0c-0.1,0-0.2,0-0.3,0c0,0-0.1,0-0.1,0l0,0c0,0,0,0,0,0c0,0,0,0,0,0c-0.1,0-0.1,0-0.2,0c0,0-0.1,0-0.1,0
							c-0.1,0-0.2,0-0.3,0.1c-0.3,0.1-0.6,0.1-0.9,0.2c-0.2,0.1-0.3,0.1-0.5,0.2c-0.8,0.3-1.6,0.7-2.4,1.2l0,0l0,0
							c-0.1,0.1-0.1,0.1-0.2,0.2c0,0,0,0,0,0c-0.1,0.1-0.2,0.2-0.4,0.3c0,0,0,0,0,0h0c0,0,0,0,0,0c0,0,0,0,0,0c0,0,0,0,0,0
							c0,0-0.1,0.1-0.1,0.1c-0.1,0.1-0.1,0.1-0.2,0.2c0,0-0.1,0.1-0.1,0.1c-0.1,0.1-0.1,0.1-0.2,0.2l0,0l0,0c0,0,0,0,0,0.1
							c-0.3,0.3-0.5,0.5-0.5,0.6c-0.1,0.1-0.2,0.2-0.3,0.3c-0.1,0.1-0.1,0.2-0.2,0.3c0,0,0,0,0,0v0c-0.2,0.2-0.3,0.4-0.5,0.7l0,0
							c0,0,0,0,0,0c0,0,0,0,0,0c-0.1,0.1-0.2,0.2-0.2,0.4c-0.1,0.1-0.1,0.2-0.2,0.3l-0.2,0.4c-0.1,0.1-0.1,0.2-0.2,0.4
							c-0.1,0.2-0.2,0.5-0.3,0.8l0,0l0,0c-0.1,0.3-0.2,0.6-0.3,0.8l0,0v0c-0.1,0.4-0.2,0.7-0.2,1c-0.1,1-0.1,1.1-0.2,1.7
							c0,0.8,0.1,1.4,0.1,1.7c0.1,0.8,0.3,1.4,0.4,1.6c0.2,0.7,0.4,1.2,0.6,1.6c0.1,0.2,0.2,0.4,0.3,0.6c0.1,0.2,0.3,0.5,0.5,0.7
							c0,0,0,0.1,0.1,0.1c0.2,0.2,0.4,0.6,0.6,0.8c0.1,0.2,0.4,0.4,0.5,0.6s0.4,0.4,0.5,0.5l0,0c0.2,0.2,0.3,0.2,0.5,0.4
							c0.2,0.2,0.4,0.3,0.7,0.5l0,0c0.1,0.1,0.1,0.1,0.2,0.1c0.1,0.1,0.2,0.1,0.2,0.2c0,0,0.1,0.1,0.2,0.1c0,0,0,0,0,0
							c0.1,0,0.1,0.1,0.2,0.1c0,0,0,0,0.1,0c0.3,0.1,0.6,0.3,1,0.4c0.1,0,0.2,0.1,0.3,0.1c0,0,0.1,0,0.1,0l0.2,0.1c0,0,0.1,0,0.1,0
							h0v0l0.1,0c0,0,0.1,0,0.1,0l0.1,0c0,0,0,0,0,0c0.5,0.1,0.9,0.2,1.3,0.3h0c0,0,0.1,0,0.1,0c0,0,0,0,0,0c0,0,0.1,0,0.1,0l0.2,0
							c0.1,0,0.2,0,0.4,0c0.1,0,0.2,0,0.3,0l0,0l0,0c0.1,0,0.1,0,0.2,0c0.1,0,0.3,0,0.5,0s0.4,0,0.5,0c0.3,0,0.8-0.1,1.1-0.1
							c0.2,0,0.6-0.1,0.8-0.2c0.1,0,0.1,0,0.2-0.1c0.2-0.1,0.4-0.1,0.5-0.2l0.2-0.1c0.2-0.1,0.3-0.1,0.5-0.2l0.1,0
							c0.2-0.1,0.4-0.2,0.6-0.3c0.1,0,0.2-0.1,0.2-0.1c0.2-0.1,0.5-0.3,0.7-0.4c0,0,0,0,0,0c0.2-0.1,0.4-0.2,0.5-0.4
							c0,0,0.1-0.1,0.1-0.1l0.2-0.2c0,0,0.1-0.1,0.1-0.1l0.3-0.2c0.1-0.1,0.3-0.3,0.6-0.6c0,0,0,0,0,0l0,0c0.1-0.2,0.3-0.3,0.5-0.6
							c0,0,0,0,0,0l0,0c0.2-0.2,0.5-0.6,0.9-1.2c0,0,0,0,0,0c0.1-0.1,0.2-0.3,0.2-0.4l0,0l0,0c0-0.1,0.1-0.1,0.1-0.2
							c0-0.1,0.1-0.2,0.1-0.3c0,0,0-0.1,0-0.1c0.1-0.1,0.1-0.3,0.2-0.4c0.1-0.2,0.2-0.4,0.2-0.6l0,0c0.1-0.3,0.2-0.7,0.3-1
							c0.1-0.2,0.1-0.4,0.1-0.6c0-0.2,0.1-0.4,0.1-0.7c0-0.1,0-0.1,0-0.2c0-0.3,0.1-0.6,0.1-1c0,0,0,0,0,0v0c0-0.3,0-0.5,0-0.8
							L335.5,114.1z"/>
						<g>
							<defs>
								<path id="SVGID_00000116931615000055414610000010466128419806764179_" d="M314.1,114.2C314.1,114.2,314.1,114.2,314.1,114.2
									c0-0.1,0-0.4,0.1-0.8c0,0,0-0.1,0-0.1c0-0.1,0-0.1,0-0.2c0.2-1.4,0.7-2.7,1.4-3.9l0,0c0.1-0.1,0.2-0.3,0.2-0.4l0,0
									c0.4-0.6,0.9-1.2,1.4-1.7c0.2-0.2,0.5-0.5,0.8-0.7c0.2-0.1,0.4-0.3,0.5-0.4c0,0,0,0,0,0l0,0c0,0,0.1,0,0.1-0.1
									c0.1-0.1,0.2-0.2,0.4-0.2l0,0c0,0,0,0,0,0c0.1,0,0.1-0.1,0.2-0.1c0,0,0.1,0,0.1-0.1s0,0,0.1-0.1c0,0,0,0,0.1,0
									c0.4-0.2,0.9-0.4,1.3-0.6c0.1-0.1,0.2-0.1,0.3-0.1l0.1,0l0.1,0c0,0,0,0,0,0h0c0,0,0.1,0,0.1-0.1h0c0,0,0,0,0,0l0.1,0
									c0,0,0.1,0,0.1,0l0.1,0c0,0,0,0,0.1,0c0,0,0,0,0,0c0,0,0,0,0,0c0,0,0,0,0,0l0.1,0c0,0,0.1,0,0.1,0c0,0,0.1,0,0.1,0l0,0
									c0,0,0,0,0.1,0c0,0,0.1,0,0.1,0l0.1,0c0,0,0.1,0,0.1,0c0,0,0,0,0,0c0,0,0,0,0.1,0h0l0.1,0l0,0h0c0,0,0,0,0,0
									c0,0,0.1,0,0.1,0c0,0,0,0,0.1,0l0,0c0,0,0.1,0,0.1,0h0.1c0,0,0,0,0,0s0,0,0.1,0c0,0,0,0,0.1,0c0,0,0.1,0,0.1,0h0.1
									c0,0,0,0,0,0l0,0c0,0,0.1,0,0.1,0c0,0,0.1,0,0.1,0c0,0,0.1,0,0.1,0c0,0,0.1,0,0.1,0c0,0,0.1,0,0.1,0c0,0,0,0,0.1,0h0.1
									c0,0,0,0,0,0s0,0,0.1,0c0.2,0,0.4,0,0.6,0c0,0,0.1,0,0.1,0c0,0,0.1,0,0.1,0c0,0,0.1,0,0.1,0c0.1,0,0.1,0,0.2,0
									c0,0,0,0,0.1,0c0.1,0,0.2,0,0.3,0c0,0,0.1,0,0.1,0l0,0c0,0,0,0,0,0c0,0,0,0,0,0c0.1,0,0.1,0,0.2,0c0,0,0.1,0,0.1,0
									c0.1,0,0.2,0,0.3,0.1c0.3,0.1,0.6,0.1,0.9,0.2c0.2,0.1,0.3,0.1,0.5,0.2c0.8,0.3,1.6,0.7,2.4,1.2l0,0l0,0
									c0.1,0.1,0.1,0.1,0.2,0.2c0,0,0,0,0,0c0.1,0.1,0.2,0.2,0.4,0.3c0,0,0,0,0,0h0c0,0,0,0,0,0c0,0,0,0,0,0c0,0,0,0,0,0
									c0,0,0.1,0.1,0.1,0.1c0.1,0.1,0.1,0.1,0.2,0.2c0,0,0.1,0.1,0.1,0.1c0.1,0.1,0.1,0.1,0.2,0.2l0,0l0,0c0,0,0,0,0,0.1
									c0.3,0.3,0.5,0.5,0.5,0.5c0.1,0.1,0.2,0.2,0.3,0.3c0.1,0.1,0.1,0.2,0.2,0.3c0,0,0,0,0,0v0c0.2,0.2,0.3,0.4,0.5,0.7l0,0
									c0,0,0,0,0,0c0,0,0,0,0,0c0.1,0.1,0.2,0.2,0.2,0.4c0.1,0.1,0.1,0.2,0.2,0.3l0.2,0.4c0.1,0.1,0.1,0.2,0.2,0.4
									c0.1,0.2,0.2,0.5,0.3,0.8l0,0l0,0c0.1,0.3,0.2,0.6,0.3,0.8l0,0v0c0.1,0.3,0.2,0.7,0.2,0.9c0.1,1,0.2,1.1,0.2,1.7
									c0,0.8-0.1,1.4-0.1,1.7c-0.1,0.8-0.3,1.4-0.4,1.7c-0.2,0.7-0.4,1.2-0.6,1.6c-0.1,0.3-0.2,0.4-0.3,0.6
									c-0.1,0.2-0.3,0.5-0.5,0.7c0,0,0,0.1-0.1,0.1c-0.2,0.3-0.4,0.6-0.6,0.8c-0.1,0.2-0.4,0.4-0.5,0.6c-0.2,0.2-0.4,0.4-0.5,0.5
									l0,0c-0.2,0.2-0.3,0.2-0.4,0.4c-0.2,0.2-0.4,0.3-0.7,0.5l0,0c-0.1,0.1-0.1,0.1-0.2,0.1c-0.1,0.1-0.2,0.1-0.2,0.2
									c0,0-0.1,0.1-0.2,0.1c0,0,0,0,0,0c-0.1,0-0.1,0.1-0.2,0.1c0,0,0,0-0.1,0c-0.3,0.1-0.6,0.3-0.9,0.4c-0.1,0-0.2,0.1-0.3,0.1
									c0,0-0.1,0-0.1,0l-0.2,0.1c0,0-0.1,0-0.1,0l0,0l0,0l-0.1,0c0,0-0.1,0-0.1,0l-0.1,0c0,0,0,0,0,0c-0.5,0.1-0.9,0.2-1.3,0.3h0
									c0,0-0.1,0-0.1,0c0,0,0,0,0,0c0,0-0.1,0-0.1,0l-0.2,0c-0.1,0-0.2,0-0.4,0c-0.1,0-0.2,0-0.3,0l0,0l0,0c-0.1,0-0.1,0-0.2,0
									c-0.1,0-0.3,0-0.5,0s-0.4,0-0.5,0c-0.3,0-0.8-0.1-1.1-0.1c-0.2,0-0.6-0.1-0.8-0.2c-0.1,0-0.1,0-0.2-0.1
									c-0.2-0.1-0.4-0.1-0.6-0.2l-0.2-0.1c-0.2-0.1-0.3-0.1-0.5-0.2l-0.1,0c-0.2-0.1-0.4-0.2-0.6-0.3c-0.1,0-0.2-0.1-0.2-0.1
									c-0.2-0.1-0.5-0.3-0.7-0.4c0,0,0,0,0,0c-0.2-0.1-0.4-0.2-0.5-0.4c0,0-0.1-0.1-0.1-0.1l-0.2-0.2c0,0-0.1-0.1-0.2-0.1
									l-0.3-0.2c-0.1-0.1-0.3-0.3-0.6-0.6c0,0,0,0,0,0l0,0c-0.1-0.2-0.3-0.3-0.5-0.6c0,0,0,0,0,0l0,0c-0.2-0.2-0.5-0.6-0.9-1.2
									c0,0,0,0,0,0c-0.1-0.1-0.2-0.3-0.2-0.4l0,0l0,0c0-0.1-0.1-0.1-0.1-0.2c0-0.1-0.1-0.2-0.1-0.3c0,0,0-0.1,0-0.1
									c-0.1-0.1-0.1-0.3-0.2-0.4c-0.1-0.2-0.2-0.4-0.2-0.6l0,0c-0.1-0.3-0.2-0.6-0.3-1c-0.1-0.2-0.1-0.4-0.1-0.6
									c0-0.2-0.1-0.4-0.1-0.7c0-0.1,0-0.1,0-0.2c0-0.3-0.1-0.6-0.1-1c0,0,0,0,0,0v0C314,114.8,314,114.5,314.1,114.2L314.1,114.2z
									"/>
							</defs>
							<clipPath id="SVGID_00000162353176041969661780000016597210140636294322_">
								<use xlink:href="#SVGID_00000116931615000055414610000010466128419806764179_"  style="overflow:visible;"/>
							</clipPath>
							<g style="clip-path:url(#SVGID_00000162353176041969661780000016597210140636294322_);">
								<g class="st12">
									
										<image style="overflow:visible;enable-background:new    ;" width="374" height="371" xlink:href="EC26BC75.png"  transform="matrix(0.4787 0 0 0.4787 235.9039 31.605)">
									</image>
								</g>
								<g>
									
										<image style="overflow:visible;enable-background:new    ;" width="354" height="349" xlink:href="EC26BC76.png"  transform="matrix(0.4786 0 0 0.4786 239.7454 24.405)">
									</image>
									<g class="st13">
										
											<image style="overflow:visible;enable-background:new    ;" width="343" height="349" xlink:href="EC26BC74.png"  transform="matrix(0.48 0 0 0.48 249.582 28.965)">
										</image>
									</g>
								</g>
							</g>
						</g>
					</g>
				</g>
				<g>
					
						<radialGradient id="SVGID_00000039845111344206499160000001652148682514397352_" cx="140.9211" cy="68.6932" r="3.22" gradientTransform="matrix(1 -6.283144e-03 -6.283144e-03 -1 18.279 288.5046)" gradientUnits="userSpaceOnUse">
						<stop  offset="0.7" style="stop-color:#D1EDDE"/>
						<stop  offset="0.79" style="stop-color:#D5EEE1"/>
						<stop  offset="0.88" style="stop-color:#E1F3E9"/>
						<stop  offset="0.97" style="stop-color:#F6FBF8"/>
						<stop  offset="1" style="stop-color:#FFFFFF"/>
					</radialGradient>
					<path style="fill:url(#SVGID_00000039845111344206499160000001652148682514397352_);" d="M161.4,218.5L161.4,218.5
						c0,0,0-0.1,0-0.2c0,0,0,0,0,0s0,0,0-0.1c-0.1-0.4-0.2-0.7-0.4-1.1l0,0c0,0,0-0.1-0.1-0.1l0,0c-0.1-0.2-0.2-0.3-0.4-0.4
						c-0.1-0.1-0.1-0.1-0.2-0.2c-0.1,0-0.1-0.1-0.1-0.1l0,0l0,0c0,0,0,0,0,0c0,0-0.1,0-0.1-0.1l0,0l0,0c0,0,0,0-0.1,0c0,0,0,0,0,0
						c0,0,0,0,0,0c0,0,0,0,0,0c-0.1-0.1-0.2-0.1-0.4-0.2c0,0-0.1,0-0.1,0h0l0,0l0,0l0,0c0,0,0,0,0,0l0,0l0,0h0c0,0,0,0,0,0h0
						c0,0,0,0,0,0l0,0l0,0l0,0h0c0,0,0,0,0,0c0,0,0,0,0,0l0,0c0,0,0,0,0,0c0,0,0,0,0,0h0c0,0,0,0,0,0l0,0c0,0,0,0,0,0h0h0l0,0l0,0
						l0,0h0c0,0,0,0,0,0l0,0c0,0,0,0,0,0h0c0,0,0,0,0,0c0,0,0,0,0,0s0,0,0,0c0,0,0,0,0,0h0l0,0l0,0c0,0,0,0,0,0s0,0,0,0c0,0,0,0,0,0
						s0,0,0,0s0,0,0,0c0,0,0,0,0,0h0c0,0,0,0,0,0c0,0,0,0,0,0c-0.1,0-0.1,0-0.2,0c0,0,0,0,0,0s0,0,0,0h0c0,0,0,0-0.1,0c0,0,0,0,0,0
						c0,0-0.1,0-0.1,0c0,0,0,0,0,0l0,0l0,0l0,0c0,0,0,0-0.1,0c0,0,0,0,0,0c0,0-0.1,0-0.1,0c-0.1,0-0.2,0-0.2,0.1
						c-0.1,0-0.1,0-0.1,0.1c-0.2,0.1-0.4,0.2-0.6,0.3l0,0l0,0c0,0,0,0-0.1,0l0,0c0,0-0.1,0.1-0.1,0.1l0,0l0,0l0,0l0,0l0,0
						c0,0,0,0,0,0c0,0,0,0-0.1,0c0,0,0,0,0,0c0,0,0,0-0.1,0.1l0,0l0,0c0,0,0,0,0,0c-0.1,0.1-0.1,0.1-0.1,0.1c0,0-0.1,0.1-0.1,0.1
						c0,0,0,0.1-0.1,0.1l0,0l0,0c0,0.1-0.1,0.1-0.1,0.2l0,0l0,0l0,0c0,0,0,0.1-0.1,0.1c0,0,0,0.1-0.1,0.1l-0.1,0.1
						c0,0,0,0.1-0.1,0.1c0,0.1-0.1,0.1-0.1,0.2l0,0l0,0c0,0.1-0.1,0.1-0.1,0.2l0,0l0,0c0,0.1-0.1,0.2-0.1,0.3c0,0.3,0,0.3,0,0.5
						c0,0.2,0,0.4,0,0.5c0,0.2,0.1,0.4,0.1,0.4c0.1,0.2,0.1,0.3,0.2,0.4c0,0.1,0.1,0.1,0.1,0.2c0,0.1,0.1,0.1,0.1,0.2c0,0,0,0,0,0
						c0.1,0.1,0.1,0.2,0.2,0.2c0,0.1,0.1,0.1,0.1,0.1s0.1,0.1,0.1,0.1l0,0c0.1,0,0.1,0.1,0.1,0.1c0.1,0.1,0.1,0.1,0.2,0.1l0,0
						c0,0,0,0,0.1,0s0.1,0,0.1,0c0,0,0,0,0,0l0,0c0,0,0,0,0.1,0c0,0,0,0,0,0c0.1,0,0.2,0.1,0.3,0.1c0,0,0.1,0,0.1,0c0,0,0,0,0,0
						l0.1,0c0,0,0,0,0,0h0l0,0h0c0,0,0,0,0,0h0c0,0,0,0,0,0c0.1,0,0.2,0.1,0.4,0.1h0c0,0,0,0,0,0l0,0c0,0,0,0,0,0h0.1
						c0,0,0.1,0,0.1,0s0.1,0,0.1,0l0,0c0,0,0,0,0,0c0,0,0.1,0,0.1,0c0,0,0.1,0,0.1,0c0.1,0,0.2,0,0.3,0c0.1,0,0.2,0,0.2-0.1
						c0,0,0,0,0.1,0c0.1,0,0.1,0,0.1-0.1l0.1,0c0,0,0.1,0,0.1-0.1h0c0,0,0.1-0.1,0.2-0.1c0,0,0,0,0.1,0c0.1,0,0.1-0.1,0.2-0.1l0,0
						c0.1,0,0.1-0.1,0.1-0.1c0,0,0,0,0,0l0.1,0c0,0,0,0,0,0l0.1-0.1c0,0,0.1-0.1,0.2-0.1l0,0l0,0c0-0.1,0.1-0.1,0.1-0.2l0,0l0,0
						c0.1-0.1,0.1-0.2,0.2-0.3l0,0c0,0,0.1-0.1,0.1-0.1l0,0l0,0c0,0,0,0,0-0.1c0,0,0-0.1,0-0.1c0,0,0,0,0,0c0,0,0-0.1,0.1-0.1
						c0-0.1,0.1-0.1,0.1-0.2l0,0c0-0.1,0.1-0.2,0.1-0.3c0-0.1,0-0.1,0-0.2c0-0.1,0-0.1,0-0.2c0,0,0,0,0,0c0-0.1,0-0.2,0-0.3l0,0l0,0
						C161.5,218.7,161.5,218.6,161.4,218.5L161.4,218.5z"/>
					<g>
						<defs>
							<path id="SVGID_00000036248070591297856270000011027354706340818100_" d="M155.6,218.6L155.6,218.6c0,0,0-0.1,0-0.2
								c0,0,0,0,0,0s0,0,0-0.1c0.1-0.4,0.2-0.8,0.4-1.1l0,0c0,0,0-0.1,0.1-0.1l0,0c0.1-0.2,0.2-0.3,0.4-0.5c0.1-0.1,0.1-0.1,0.2-0.2
								c0.1,0,0.1-0.1,0.1-0.1l0,0l0,0c0,0,0,0,0,0c0,0,0.1-0.1,0.1-0.1l0,0l0,0c0,0,0,0,0.1,0c0,0,0,0,0,0c0,0,0,0,0,0c0,0,0,0,0,0
								c0.1-0.1,0.2-0.1,0.4-0.2c0,0,0.1,0,0.1,0h0l0,0l0,0l0,0c0,0,0,0,0,0l0,0l0,0h0c0,0,0,0,0,0h0c0,0,0,0,0,0l0,0l0,0l0,0h0
								c0,0,0,0,0,0c0,0,0,0,0,0l0,0c0,0,0,0,0,0c0,0,0,0,0,0h0c0,0,0,0,0,0l0,0c0,0,0,0,0,0h0h0l0,0l0,0l0,0h0c0,0,0,0,0,0l0,0
								c0,0,0,0,0,0h0c0,0,0,0,0,0c0,0,0,0,0,0c0,0,0,0,0,0c0,0,0,0,0,0h0l0,0l0,0c0,0,0,0,0,0s0,0,0,0c0,0,0,0,0,0s0,0,0,0s0,0,0,0
								c0,0,0,0,0,0h0c0,0,0,0,0,0h0c0.1,0,0.1,0,0.2,0c0,0,0,0,0,0s0,0,0,0h0c0,0,0,0,0.1,0c0,0,0,0,0,0c0,0,0.1,0,0.1,0
								c0,0,0,0,0,0l0,0l0,0l0,0c0,0,0,0,0.1,0c0,0,0,0,0,0c0,0,0.1,0,0.1,0c0.1,0,0.2,0,0.2,0.1c0.1,0,0.1,0,0.1,0.1
								c0.2,0.1,0.4,0.2,0.6,0.3l0,0l0,0c0,0,0,0,0.1,0l0,0c0,0,0.1,0.1,0.1,0.1l0,0l0,0l0,0l0,0l0,0c0,0,0,0,0,0c0,0,0,0,0.1,0
								c0,0,0,0,0,0c0,0,0,0,0.1,0.1l0,0l0,0c0,0,0,0,0,0c0.1,0.1,0.1,0.1,0.1,0.1c0,0,0.1,0.1,0.1,0.1c0,0,0,0.1,0.1,0.1l0,0l0,0
								c0,0.1,0.1,0.1,0.1,0.2l0,0l0,0l0,0c0,0,0,0.1,0.1,0.1c0,0,0,0.1,0.1,0.1l0.1,0.1c0,0,0,0.1,0.1,0.1c0,0.1,0.1,0.1,0.1,0.2
								l0,0l0,0c0,0.1,0.1,0.1,0.1,0.2l0,0l0,0c0,0.1,0.1,0.2,0.1,0.3c0,0.3,0.1,0.3,0.1,0.5c0,0.2,0,0.4,0,0.5
								c0,0.2-0.1,0.4-0.1,0.4c-0.1,0.2-0.1,0.3-0.2,0.4c0,0.1-0.1,0.1-0.1,0.2c0,0.1-0.1,0.1-0.1,0.2c0,0,0,0,0,0
								c-0.1,0.1-0.1,0.2-0.2,0.2c0,0.1-0.1,0.1-0.1,0.1s-0.1,0.1-0.1,0.1l0,0c-0.1,0.1-0.1,0.1-0.1,0.1c-0.1,0.1-0.1,0.1-0.2,0.1
								l0,0c0,0,0,0-0.1,0s-0.1,0-0.1,0c0,0,0,0,0,0l0,0c0,0,0,0-0.1,0c0,0,0,0,0,0c-0.1,0-0.2,0.1-0.3,0.1c0,0-0.1,0-0.1,0
								c0,0,0,0,0,0l-0.1,0c0,0,0,0,0,0h0l0,0h0c0,0,0,0,0,0h0v0c-0.1,0-0.2,0.1-0.4,0.1h0c0,0,0,0,0,0l0,0c0,0,0,0,0,0h-0.1
								c0,0-0.1,0-0.1,0c0,0-0.1,0-0.1,0l0,0l0,0c0,0,0,0,0,0c0,0-0.1,0-0.1,0c0,0-0.1,0-0.1,0c-0.1,0-0.2,0-0.3,0
								c-0.1,0-0.2,0-0.2-0.1c0,0,0,0-0.1,0c-0.1,0-0.1,0-0.1,0l-0.1,0c0,0-0.1,0-0.1-0.1h0c0,0-0.1-0.1-0.2-0.1c0,0-0.1,0-0.1,0
								c-0.1,0-0.1-0.1-0.2-0.1l0,0c-0.1,0-0.1-0.1-0.1-0.1c0,0,0,0,0,0l-0.1,0c0,0,0,0,0,0l-0.1-0.1c0,0-0.1-0.1-0.2-0.1l0,0l0,0
								c0-0.1-0.1-0.1-0.2-0.2l0,0l0,0c-0.1-0.1-0.1-0.2-0.2-0.3l0,0c0,0-0.1-0.1-0.1-0.1l0,0l0,0c0,0,0,0,0-0.1c0,0,0-0.1,0-0.1
								c0,0,0,0,0,0c0,0,0-0.1-0.1-0.1c0-0.1-0.1-0.1-0.1-0.2l0,0c0-0.1-0.1-0.2-0.1-0.3c0-0.1,0-0.1,0-0.2c0-0.1,0-0.1,0-0.2
								c0,0,0,0,0,0c0-0.1,0-0.2,0-0.3l0,0l0,0c0-0.1,0-0.1,0-0.2L155.6,218.6z"/>
						</defs>
						<clipPath id="SVGID_00000149380100152988755740000017422131351912697532_">
							<use xlink:href="#SVGID_00000036248070591297856270000011027354706340818100_"  style="overflow:visible;"/>
						</clipPath>
						<g style="clip-path:url(#SVGID_00000149380100152988755740000017422131351912697532_);">
							<g class="st16">
								
									<image style="overflow:visible;enable-background:new    ;" width="346" height="342" xlink:href="EC26BC73.png"  transform="matrix(0.4786 0 0 0.4786 75.8248 138.645)">
								</image>
							</g>
							<g>
								
									<image style="overflow:visible;enable-background:new    ;" width="340" height="338" xlink:href="EC26BC7D.png"  transform="matrix(0.4814 0 0 0.4814 76.3019 135.7664)">
								</image>
								<g class="st13">
									
										<image style="overflow:visible;enable-background:new    ;" width="337" height="338" xlink:href="EC26BC7E.png"  transform="matrix(0.48 0 0 0.48 79.6619 137.205)">
									</image>
								</g>
							</g>
						</g>
					</g>
				</g>
				<g>
					
						<radialGradient id="SVGID_00000090994583985168873640000007795102396775414427_" cx="218.672" cy="253.895" r="3.22" gradientTransform="matrix(1 0 0 -1 0 306)" gradientUnits="userSpaceOnUse">
						<stop  offset="0.7" style="stop-color:#D1EDDE"/>
						<stop  offset="0.79" style="stop-color:#D5EEE1"/>
						<stop  offset="0.88" style="stop-color:#E1F3E9"/>
						<stop  offset="0.97" style="stop-color:#F6FBF8"/>
						<stop  offset="1" style="stop-color:#FFFFFF"/>
					</radialGradient>
					<path style="fill:url(#SVGID_00000090994583985168873640000007795102396775414427_);" d="M235.4,37.9L235.4,37.9
						c0,0,0-0.1,0-0.2c0,0,0,0,0,0s0,0,0,0c-0.1-0.4-0.2-0.7-0.4-1.1l0,0c0,0,0-0.1-0.1-0.1l0,0c-0.1-0.2-0.2-0.3-0.4-0.5
						c-0.1-0.1-0.1-0.1-0.2-0.2c-0.1,0-0.1-0.1-0.1-0.1l0,0l0,0c0,0,0,0,0,0c0,0-0.1,0-0.1-0.1l0,0l0,0c0,0,0,0-0.1,0c0,0,0,0,0,0
						c0,0,0,0,0,0c0,0,0,0,0,0c-0.1-0.1-0.2-0.1-0.4-0.2c0,0-0.1,0-0.1,0h0l0,0l0,0l0,0c0,0,0,0,0,0l0,0l0,0h0c0,0,0,0,0,0h0
						c0,0,0,0,0,0l0,0l0,0l0,0h0c0,0,0,0,0,0c0,0,0,0,0,0l0,0c0,0,0,0,0,0c0,0,0,0,0,0h0c0,0,0,0,0,0l0,0c0,0,0,0,0,0h0h0l0,0l0,0
						l0,0h0c0,0,0,0,0,0l0,0c0,0,0,0,0,0h0c0,0,0,0,0,0h0c0,0,0,0,0,0c0,0,0,0,0,0h0l0,0l0,0c0,0,0,0,0,0s0,0,0,0c0,0,0,0,0,0
						s0,0,0,0s0,0,0,0c0,0,0,0,0,0h0c0,0,0,0,0,0c0,0,0,0,0,0c-0.1,0-0.1,0-0.2,0c0,0,0,0,0,0s0,0,0,0h0c0,0,0,0-0.1,0c0,0,0,0,0,0
						c0,0-0.1,0-0.1,0c0,0,0,0,0,0l0,0l0,0l0,0c0,0,0,0-0.1,0c0,0,0,0,0,0c0,0-0.1,0-0.1,0c-0.1,0-0.2,0-0.2,0.1
						c-0.1,0-0.1,0-0.1,0.1c-0.2,0.1-0.4,0.2-0.6,0.3l0,0l0,0c0,0,0,0-0.1,0l0,0c0,0-0.1,0-0.1,0.1l0,0l0,0l0,0l0,0l0,0c0,0,0,0,0,0
						c0,0,0,0-0.1,0c0,0,0,0,0,0c0,0,0,0-0.1,0l0,0l0,0c0,0,0,0,0,0c-0.1,0.1-0.1,0.1-0.1,0.1c0,0-0.1,0.1-0.1,0.1c0,0,0,0-0.1,0.1
						l0,0l0,0c0,0.1-0.1,0.1-0.1,0.2l0,0l0,0l0,0c0,0,0,0.1-0.1,0.1c0,0,0,0.1-0.1,0.1l-0.1,0.1c0,0,0,0.1-0.1,0.1
						c0,0.1-0.1,0.1-0.1,0.2l0,0l0,0c0,0.1-0.1,0.1-0.1,0.2l0,0l0,0c0,0.1-0.1,0.2-0.1,0.3c0,0.3,0,0.3,0,0.5c0,0.2,0,0.4,0,0.5
						c0,0.2,0.1,0.4,0.1,0.5c0.1,0.2,0.1,0.3,0.2,0.4c0,0.1,0.1,0.1,0.1,0.2c0,0.1,0.1,0.1,0.1,0.2c0,0,0,0,0,0
						c0.1,0.1,0.1,0.2,0.2,0.2c0,0,0.1,0.1,0.1,0.2c0,0,0.1,0.1,0.1,0.1l0,0c0.1,0,0.1,0.1,0.1,0.1c0.1,0.1,0.1,0.1,0.2,0.1l0,0
						c0,0,0,0,0.1,0c0,0,0.1,0,0.1,0c0,0,0,0,0,0l0,0c0,0,0,0,0.1,0c0,0,0,0,0,0c0.1,0,0.2,0.1,0.3,0.1c0,0,0.1,0,0.1,0c0,0,0,0,0,0
						l0.1,0c0,0,0,0,0,0h0l0,0h0c0,0,0,0,0,0h0c0,0,0,0,0,0c0.1,0,0.2,0.1,0.4,0.1h0c0,0,0,0,0,0l0,0c0,0,0,0,0,0h0.1
						c0,0,0.1,0,0.1,0s0.1,0,0.1,0l0,0c0,0,0,0,0,0c0,0,0.1,0,0.1,0c0,0,0.1,0,0.1,0c0.1,0,0.2,0,0.3,0c0.1,0,0.2,0,0.2,0
						c0,0,0,0,0.1,0c0.1,0,0.1,0,0.1,0l0.1,0c0,0,0.1,0,0.1-0.1h0c0,0,0.1-0.1,0.2-0.1c0,0,0,0,0.1,0c0.1,0,0.1-0.1,0.2-0.1l0,0
						c0.1,0,0.1-0.1,0.1-0.1c0,0,0,0,0,0l0.1,0c0,0,0,0,0,0l0.1-0.1c0,0,0.1-0.1,0.2-0.2l0,0l0,0c0,0,0.1-0.1,0.1-0.2l0,0l0,0
						c0.1-0.1,0.1-0.2,0.2-0.3l0,0c0,0,0.1-0.1,0.1-0.1l0,0l0,0c0,0,0,0,0,0c0,0,0-0.1,0-0.1c0,0,0,0,0,0c0,0,0-0.1,0.1-0.1
						c0-0.1,0.1-0.1,0.1-0.2l0,0c0-0.1,0.1-0.2,0.1-0.3c0-0.1,0-0.1,0-0.2c0-0.1,0-0.1,0-0.2c0,0,0,0,0,0c0-0.1,0-0.2,0-0.3l0,0l0,0
						C235.5,38,235.5,38,235.4,37.9L235.4,37.9z"/>
					<g>
						<defs>
							<path id="SVGID_00000173131874914024406820000002381252177726374307_" d="M229.6,37.9L229.6,37.9c0,0,0-0.1,0-0.2
								c0,0,0,0,0,0c0,0,0,0,0,0c0.1-0.4,0.2-0.8,0.4-1.1l0,0c0,0,0-0.1,0.1-0.1l0,0c0.1-0.2,0.2-0.3,0.4-0.5
								c0.1-0.1,0.1-0.1,0.2-0.2c0.1,0,0.1-0.1,0.1-0.1l0,0l0,0c0,0,0,0,0,0c0,0,0.1,0,0.1-0.1l0,0l0,0c0,0,0,0,0.1,0c0,0,0,0,0,0
								c0,0,0,0,0,0c0,0,0,0,0,0c0.1-0.1,0.2-0.1,0.4-0.2c0,0,0.1,0,0.1,0h0l0,0l0,0l0,0c0,0,0,0,0,0l0,0l0,0h0c0,0,0,0,0,0h0
								c0,0,0,0,0,0l0,0l0,0l0,0h0c0,0,0,0,0,0c0,0,0,0,0,0l0,0c0,0,0,0,0,0c0,0,0,0,0,0h0c0,0,0,0,0,0l0,0c0,0,0,0,0,0h0h0l0,0l0,0
								l0,0h0c0,0,0,0,0,0l0,0c0,0,0,0,0,0h0c0,0,0,0,0,0h0c0,0,0,0,0,0c0,0,0,0,0,0h0l0,0l0,0c0,0,0,0,0,0s0,0,0,0c0,0,0,0,0,0
								s0,0,0,0s0,0,0,0c0,0,0,0,0,0h0c0,0,0,0,0,0c0,0,0,0,0,0c0.1,0,0.1,0,0.2,0c0,0,0,0,0,0s0,0,0,0h0c0,0,0,0,0.1,0c0,0,0,0,0,0
								c0,0,0.1,0,0.1,0c0,0,0,0,0,0l0,0l0,0l0,0c0,0,0,0,0.1,0c0,0,0,0,0,0c0,0,0.1,0,0.1,0c0.1,0,0.2,0,0.2,0.1c0.1,0,0.1,0,0.1,0
								c0.2,0.1,0.4,0.2,0.6,0.3l0,0l0,0c0,0,0,0,0.1,0l0,0c0,0,0.1,0,0.1,0.1l0,0l0,0l0,0l0,0l0,0c0,0,0,0,0,0c0,0,0,0,0.1,0
								c0,0,0,0,0,0c0,0,0,0,0.1,0l0,0l0,0c0,0,0,0,0,0c0.1,0.1,0.1,0.1,0.1,0.1c0,0,0.1,0.1,0.1,0.1c0,0,0,0,0.1,0.1l0,0l0,0
								c0,0,0.1,0.1,0.1,0.2l0,0l0,0l0,0c0,0,0,0.1,0.1,0.1c0,0,0,0.1,0.1,0.1l0.1,0.1c0,0,0,0.1,0.1,0.1c0,0.1,0.1,0.1,0.1,0.2l0,0
								l0,0c0,0.1,0.1,0.1,0.1,0.2l0,0l0,0c0,0.1,0.1,0.2,0.1,0.3c0,0.3,0,0.3,0.1,0.5c0,0.2,0,0.4,0,0.5c0,0.2-0.1,0.4-0.1,0.5
								c-0.1,0.2-0.1,0.3-0.2,0.4c0,0.1-0.1,0.1-0.1,0.2c0,0.1-0.1,0.1-0.1,0.2c0,0,0,0,0,0c-0.1,0.1-0.1,0.2-0.2,0.2
								c0,0-0.1,0.1-0.1,0.1s-0.1,0.1-0.1,0.1l0,0c-0.1,0.1-0.1,0.1-0.1,0.1c-0.1,0-0.1,0.1-0.2,0.1l0,0c0,0,0,0-0.1,0
								c0,0-0.1,0-0.1,0c0,0,0,0,0,0l0,0c0,0,0,0-0.1,0c0,0,0,0,0,0c-0.1,0-0.2,0.1-0.3,0.1c0,0-0.1,0-0.1,0c0,0,0,0,0,0l-0.1,0
								c0,0,0,0,0,0h0l0,0h0c0,0,0,0,0,0h0v0c-0.1,0-0.2,0.1-0.4,0.1h0c0,0,0,0,0,0l0,0c0,0,0,0,0,0h-0.1c0,0-0.1,0-0.1,0
								c0,0-0.1,0-0.1,0l0,0l0,0c0,0,0,0,0,0c0,0-0.1,0-0.1,0c0,0-0.1,0-0.1,0c-0.1,0-0.2,0-0.3,0c-0.1,0-0.2,0-0.2,0c0,0,0,0-0.1,0
								c-0.1,0-0.1,0-0.1,0l-0.1,0c0,0-0.1,0-0.1,0h0c0,0-0.1,0-0.2-0.1c0,0-0.1,0-0.1,0c-0.1,0-0.1-0.1-0.2-0.1l0,0
								c-0.1,0-0.1-0.1-0.1-0.1c0,0,0,0,0,0l-0.1,0c0,0,0,0,0,0l-0.1-0.1c0,0-0.1-0.1-0.2-0.1l0,0l0,0c0,0-0.1-0.1-0.1-0.2l0,0l0,0
								c-0.1-0.1-0.1-0.2-0.2-0.3l0,0c0,0-0.1-0.1-0.1-0.1l0,0l0,0c0,0,0,0,0,0s0,0,0-0.1c0,0,0,0,0,0c0,0,0-0.1-0.1-0.1
								c0-0.1-0.1-0.1-0.1-0.2l0,0c0-0.1-0.1-0.2-0.1-0.3c0-0.1,0-0.1,0-0.2c0-0.1,0-0.1,0-0.2c0,0,0,0,0,0c0-0.1,0-0.2,0-0.3l0,0
								l0,0c0-0.1,0-0.1,0-0.2L229.6,37.9z"/>
						</defs>
						<clipPath id="SVGID_00000149381565339508279740000008050324860680055230_">
							<use xlink:href="#SVGID_00000173131874914024406820000002381252177726374307_"  style="overflow:visible;"/>
						</clipPath>
						<g style="clip-path:url(#SVGID_00000149381565339508279740000008050324860680055230_);">
							<g class="st16">
								
									<image style="overflow:visible;enable-background:new    ;" width="345" height="340" xlink:href="EC26BC7C.png"  transform="matrix(0.4786 0 0 0.4786 150.222 -41.5985)">
								</image>
							</g>
							<g>
								
									<image style="overflow:visible;enable-background:new    ;" width="342" height="340" xlink:href="21993C31.png"  transform="matrix(0.4786 0 0 0.4786 150.2234 -44.715)">
								</image>
								<g class="st13">
									
										<image style="overflow:visible;enable-background:new    ;" width="338" height="339" xlink:href="21993C37.png"  transform="matrix(0.48 0 0 0.48 153.582 -43.755)">
									</image>
								</g>
							</g>
						</g>
					</g>
				</g>
				<g>
					
						<radialGradient id="SVGID_00000076562831264291972730000007843836199231579044_" cx="226.2919" cy="51.515" r="3.22" gradientTransform="matrix(1 0 0 -1 0 306)" gradientUnits="userSpaceOnUse">
						<stop  offset="0.7" style="stop-color:#D1EDDE"/>
						<stop  offset="0.79" style="stop-color:#D5EEE1"/>
						<stop  offset="0.88" style="stop-color:#E1F3E9"/>
						<stop  offset="0.97" style="stop-color:#F6FBF8"/>
						<stop  offset="1" style="stop-color:#FFFFFF"/>
					</radialGradient>
					<path style="fill:url(#SVGID_00000076562831264291972730000007843836199231579044_);" d="M244.3,240.2L244.3,240.2
						c0,0,0-0.1,0-0.2c0,0,0,0,0,0s0,0,0-0.1c-0.1-0.4-0.2-0.7-0.4-1.1l0,0c0,0,0-0.1-0.1-0.1l0,0c-0.1-0.2-0.2-0.3-0.4-0.4
						c-0.1-0.1-0.1-0.1-0.2-0.2c-0.1,0-0.1-0.1-0.1-0.1l0,0l0,0c0,0,0,0,0,0c0,0-0.1,0-0.1-0.1l0,0l0,0c0,0,0,0-0.1,0c0,0,0,0,0,0
						c0,0,0,0,0,0c0,0,0,0,0,0c-0.1-0.1-0.2-0.1-0.4-0.2c0,0-0.1,0-0.1,0h0l0,0l0,0l0,0c0,0,0,0,0,0l0,0l0,0h0c0,0,0,0,0,0h0
						c0,0,0,0,0,0l0,0l0,0l0,0h0c0,0,0,0,0,0h0l0,0c0,0,0,0,0,0c0,0,0,0,0,0h0c0,0,0,0,0,0l0,0c0,0,0,0,0,0h0h0l0,0l0,0l0,0h0
						c0,0,0,0,0,0l0,0c0,0,0,0,0,0h0c0,0,0,0,0,0c0,0,0,0,0,0c0,0,0,0,0,0c0,0,0,0,0,0h0l0,0l0,0c0,0,0,0,0,0s0,0,0,0c0,0,0,0,0,0
						s0,0,0,0s0,0,0,0c0,0,0,0,0,0h0c0,0,0,0,0,0c0,0,0,0,0,0c-0.1,0-0.1,0-0.2,0c0,0,0,0,0,0s0,0,0,0h0c0,0,0,0-0.1,0c0,0,0,0,0,0
						c0,0-0.1,0-0.1,0c0,0,0,0,0,0l0,0l0,0l0,0c0,0,0,0-0.1,0c0,0,0,0,0,0c0,0-0.1,0-0.1,0c-0.1,0-0.2,0-0.2,0.1
						c-0.1,0-0.1,0-0.1,0.1c-0.2,0.1-0.4,0.2-0.6,0.3l0,0l0,0c0,0,0,0-0.1,0l0,0c0,0-0.1,0.1-0.1,0.1l0,0l0,0l0,0l0,0l0,0
						c0,0,0,0,0,0c0,0,0,0-0.1,0c0,0,0,0,0,0c0,0,0,0-0.1,0.1l0,0l0,0c0,0,0,0,0,0c-0.1,0.1-0.1,0.1-0.1,0.1c0,0-0.1,0.1-0.1,0.1
						c0,0,0,0.1-0.1,0.1l0,0l0,0c0,0.1-0.1,0.1-0.1,0.2l0,0l0,0l0,0c0,0,0,0.1-0.1,0.1c0,0,0,0.1-0.1,0.1l-0.1,0.1
						c0,0,0,0.1-0.1,0.1c0,0.1-0.1,0.1-0.1,0.2l0,0l0,0c0,0.1-0.1,0.1-0.1,0.2l0,0l0,0c0,0.1-0.1,0.2-0.1,0.3c0,0.3,0,0.3,0,0.5
						c0,0.2,0,0.4,0,0.5c0,0.2,0.1,0.4,0.1,0.4c0.1,0.2,0.1,0.3,0.2,0.4c0,0.1,0.1,0.1,0.1,0.2c0,0.1,0.1,0.1,0.1,0.2c0,0,0,0,0,0
						c0.1,0.1,0.1,0.2,0.2,0.2c0,0.1,0.1,0.1,0.1,0.1s0.1,0.1,0.1,0.1l0,0c0.1,0,0.1,0.1,0.1,0.1c0.1,0.1,0.1,0.1,0.2,0.1l0,0
						c0,0,0,0,0.1,0s0.1,0,0.1,0c0,0,0,0,0,0l0,0c0,0,0,0,0.1,0c0,0,0,0,0,0c0.1,0,0.2,0.1,0.3,0.1c0,0,0.1,0,0.1,0c0,0,0,0,0,0
						l0.1,0c0,0,0,0,0,0h0l0,0h0c0,0,0,0,0,0h0c0,0,0,0,0,0c0.1,0,0.2,0.1,0.4,0.1h0c0,0,0,0,0,0l0,0c0,0,0,0,0,0h0.1
						c0,0,0.1,0,0.1,0s0.1,0,0.1,0l0,0l0,0c0,0,0,0,0,0c0,0,0.1,0,0.1,0c0,0,0.1,0,0.1,0c0.1,0,0.2,0,0.3,0c0.1,0,0.2,0,0.2-0.1
						c0,0,0,0,0.1,0c0.1,0,0.1,0,0.1-0.1l0.1,0c0,0,0.1,0,0.1-0.1h0c0,0,0.1-0.1,0.2-0.1c0,0,0,0,0.1,0c0.1,0,0.1-0.1,0.2-0.1l0,0
						c0.1,0,0.1-0.1,0.1-0.1c0,0,0,0,0,0l0.1,0c0,0,0,0,0,0l0.1-0.1c0,0,0.1-0.1,0.2-0.1l0,0l0,0c0-0.1,0.1-0.1,0.1-0.2l0,0l0,0
						c0.1-0.1,0.1-0.2,0.2-0.3l0,0c0,0,0.1-0.1,0.1-0.1l0,0l0,0c0,0,0,0,0-0.1c0,0,0-0.1,0-0.1c0,0,0,0,0,0c0,0,0-0.1,0.1-0.1
						c0-0.1,0.1-0.1,0.1-0.2l0,0c0-0.1,0.1-0.2,0.1-0.3c0-0.1,0-0.1,0-0.2c0-0.1,0-0.1,0-0.2c0,0,0,0,0,0c0-0.1,0-0.2,0-0.3l0,0l0,0
						C244.4,240.4,244.4,240.3,244.3,240.2L244.3,240.2z"/>
					<g>
						<defs>
							<path id="SVGID_00000164514392842399148040000006771348828255151778_" d="M238.5,240.2L238.5,240.2c0,0,0-0.1,0-0.2
								c0,0,0,0,0,0s0,0,0-0.1c0.1-0.4,0.2-0.8,0.4-1.1l0,0c0,0,0-0.1,0.1-0.1l0,0c0.1-0.2,0.2-0.3,0.4-0.5c0.1-0.1,0.1-0.1,0.2-0.2
								c0.1,0,0.1-0.1,0.1-0.1l0,0l0,0c0,0,0,0,0,0c0,0,0.1-0.1,0.1-0.1l0,0l0,0c0,0,0,0,0.1,0c0,0,0,0,0,0c0,0,0,0,0,0c0,0,0,0,0,0
								c0.1-0.1,0.2-0.1,0.4-0.2c0,0,0.1,0,0.1,0h0l0,0l0,0l0,0c0,0,0,0,0,0l0,0l0,0h0c0,0,0,0,0,0h0c0,0,0,0,0,0l0,0l0,0l0,0h0
								c0,0,0,0,0,0c0,0,0,0,0,0l0,0c0,0,0,0,0,0c0,0,0,0,0,0h0c0,0,0,0,0,0l0,0c0,0,0,0,0,0h0h0l0,0l0,0l0,0h0c0,0,0,0,0,0l0,0
								c0,0,0,0,0,0h0c0,0,0,0,0,0c0,0,0,0,0,0c0,0,0,0,0,0c0,0,0,0,0,0h0l0,0l0,0c0,0,0,0,0,0s0,0,0,0c0,0,0,0,0,0s0,0,0,0s0,0,0,0
								c0,0,0,0,0,0h0c0,0,0,0,0,0c0,0,0,0,0,0c0.1,0,0.1,0,0.2,0c0,0,0,0,0,0s0,0,0,0h0c0,0,0,0,0.1,0c0,0,0,0,0,0c0,0,0.1,0,0.1,0
								c0,0,0,0,0,0l0,0l0,0l0,0c0,0,0,0,0.1,0c0,0,0,0,0,0c0,0,0.1,0,0.1,0c0.1,0,0.2,0,0.2,0.1c0.1,0,0.1,0,0.1,0.1
								c0.2,0.1,0.4,0.2,0.6,0.3l0,0l0,0c0,0,0,0,0.1,0l0,0c0,0,0.1,0.1,0.1,0.1l0,0l0,0l0,0l0,0l0,0c0,0,0,0,0,0c0,0,0,0,0.1,0
								c0,0,0,0,0,0c0,0,0,0,0.1,0.1l0,0l0,0c0,0,0,0,0,0c0.1,0.1,0.1,0.1,0.1,0.1c0,0,0.1,0.1,0.1,0.1c0,0,0,0.1,0.1,0.1l0,0l0,0
								c0,0.1,0.1,0.1,0.1,0.2l0,0l0,0l0,0c0,0,0,0.1,0.1,0.1c0,0,0,0.1,0.1,0.1l0.1,0.1c0,0,0,0.1,0.1,0.1c0,0.1,0.1,0.1,0.1,0.2
								l0,0l0,0c0,0.1,0.1,0.1,0.1,0.2l0,0l0,0c0,0.1,0.1,0.2,0.1,0.3c0,0.3,0,0.3,0.1,0.5c0,0.2,0,0.4,0,0.5c0,0.2-0.1,0.4-0.1,0.4
								c-0.1,0.2-0.1,0.3-0.2,0.4c0,0.1-0.1,0.1-0.1,0.2c0,0.1-0.1,0.1-0.1,0.2c0,0,0,0,0,0c-0.1,0.1-0.1,0.2-0.2,0.2
								c0,0.1-0.1,0.1-0.1,0.1s-0.1,0.1-0.1,0.1l0,0c-0.1,0.1-0.1,0.1-0.1,0.1c-0.1,0.1-0.1,0.1-0.2,0.1l0,0c0,0,0,0-0.1,0
								s-0.1,0-0.1,0c0,0,0,0,0,0l0,0c0,0,0,0-0.1,0c0,0,0,0,0,0c-0.1,0-0.2,0.1-0.3,0.1c0,0-0.1,0-0.1,0c0,0,0,0,0,0l-0.1,0
								c0,0,0,0,0,0h0l0,0h0c0,0,0,0,0,0h0v0c-0.1,0-0.2,0.1-0.4,0.1h0c0,0,0,0,0,0l0,0c0,0,0,0,0,0h-0.1c0,0-0.1,0-0.1,0
								c0,0-0.1,0-0.1,0l0,0c0,0,0,0,0,0c0,0-0.1,0-0.1,0c0,0-0.1,0-0.1,0c-0.1,0-0.2,0-0.3,0c-0.1,0-0.2,0-0.2-0.1c0,0,0,0-0.1,0
								c-0.1,0-0.1,0-0.1,0l-0.1,0c0,0-0.1,0-0.1-0.1h0c0,0-0.1-0.1-0.2-0.1c0,0-0.1,0-0.1,0c-0.1,0-0.1-0.1-0.2-0.1l0,0
								c-0.1,0-0.1-0.1-0.1-0.1c0,0,0,0,0,0l-0.1,0c0,0,0,0,0,0l-0.1-0.1c0,0-0.1-0.1-0.2-0.1l0,0l0,0c0-0.1-0.1-0.1-0.1-0.2l0,0
								l0,0c-0.1-0.1-0.1-0.2-0.2-0.3l0,0c0,0-0.1-0.1-0.1-0.1l0,0l0,0c0,0,0,0,0-0.1s0-0.1,0-0.1c0,0,0,0,0,0c0,0,0-0.1-0.1-0.1
								c0-0.1-0.1-0.1-0.1-0.2l0,0c0-0.1-0.1-0.2-0.1-0.3c0-0.1,0-0.1,0-0.2c0-0.1,0-0.1,0-0.2c0,0,0,0,0,0c0-0.1,0-0.2,0-0.3l0,0
								l0,0C238.4,240.4,238.4,240.3,238.5,240.2L238.5,240.2z"/>
						</defs>
						<clipPath id="SVGID_00000121992262280001670100000001403071233388979613_">
							<use xlink:href="#SVGID_00000164514392842399148040000006771348828255151778_"  style="overflow:visible;"/>
						</clipPath>
						<g style="clip-path:url(#SVGID_00000121992262280001670100000001403071233388979613_);">
							<g class="st16">
								
									<image style="overflow:visible;enable-background:new    ;" width="346" height="341" xlink:href="21993C30.png"  transform="matrix(0.4786 0 0 0.4786 158.862 160.4815)">
								</image>
							</g>
							<g>
								
									<image style="overflow:visible;enable-background:new    ;" width="343" height="340" xlink:href="21993C33.png"  transform="matrix(0.4786 0 0 0.4786 158.8641 157.365)">
								</image>
								<g class="st13">
									
										<image style="overflow:visible;enable-background:new    ;" width="339" height="339" xlink:href="21993C2F.png"  transform="matrix(0.4786 0 0 0.4786 162.222 159.045)">
									</image>
								</g>
							</g>
						</g>
					</g>
				</g>
				<g>
					
						<radialGradient id="SVGID_00000069365776710091209590000017284484673438507146_" cx="325.8919" cy="156.965" r="3.22" gradientTransform="matrix(1 0 0 -1 0 306)" gradientUnits="userSpaceOnUse">
						<stop  offset="0.7" style="stop-color:#D1EDDE"/>
						<stop  offset="0.79" style="stop-color:#D5EEE1"/>
						<stop  offset="0.88" style="stop-color:#E1F3E9"/>
						<stop  offset="0.97" style="stop-color:#F6FBF8"/>
						<stop  offset="1" style="stop-color:#FFFFFF"/>
					</radialGradient>
					<path style="fill:url(#SVGID_00000069365776710091209590000017284484673438507146_);" d="M343.3,134.1L343.3,134.1
						c0,0,0-0.1,0-0.2c0,0,0,0,0,0c0,0,0,0,0-0.1c-0.1-0.4-0.2-0.7-0.4-1.1l0,0c0,0,0-0.1-0.1-0.1l0,0c-0.1-0.2-0.2-0.3-0.4-0.4
						c-0.1-0.1-0.1-0.1-0.2-0.2c0,0-0.1-0.1-0.1-0.1l0,0l0,0c0,0,0,0,0,0c0,0-0.1,0-0.1-0.1l0,0l0,0c0,0,0,0-0.1,0c0,0,0,0,0,0
						c0,0,0,0,0,0c0,0,0,0,0,0c-0.1-0.1-0.2-0.1-0.4-0.2c0,0-0.1,0-0.1,0h0l0,0l0,0l0,0c0,0,0,0,0,0l0,0l0,0h0c0,0,0,0,0,0h0
						c0,0,0,0,0,0l0,0l0,0l0,0h0c0,0,0,0,0,0h0l0,0c0,0,0,0,0,0c0,0,0,0,0,0h0c0,0,0,0,0,0l0,0c0,0,0,0,0,0h0h0l0,0l0,0l0,0h0
						c0,0,0,0,0,0l0,0c0,0,0,0,0,0h0c0,0,0,0,0,0c0,0,0,0,0,0c0,0,0,0,0,0c0,0,0,0,0,0h0l0,0l0,0c0,0,0,0,0,0s0,0,0,0c0,0,0,0,0,0
						s0,0,0,0s0,0,0,0c0,0,0,0,0,0h0c0,0,0,0,0,0c0,0,0,0,0,0c-0.1,0-0.1,0-0.2,0c0,0,0,0,0,0s0,0,0,0h0c0,0,0,0-0.1,0c0,0,0,0,0,0
						c0,0,0,0-0.1,0c0,0,0,0,0,0l0,0l0,0l0,0c0,0,0,0-0.1,0c0,0,0,0,0,0c0,0-0.1,0-0.1,0c-0.1,0-0.2,0-0.2,0.1c0,0-0.1,0-0.1,0.1
						c-0.2,0.1-0.4,0.2-0.6,0.3l0,0l0,0c0,0,0,0-0.1,0l0,0c0,0-0.1,0.1-0.1,0.1l0,0l0,0l0,0l0,0l0,0c0,0,0,0,0,0c0,0,0,0,0,0
						c0,0,0,0,0,0c0,0,0,0-0.1,0.1l0,0l0,0c0,0,0,0,0,0c-0.1,0.1-0.1,0.1-0.1,0.1c0,0-0.1,0.1-0.1,0.1c0,0,0,0.1-0.1,0.1l0,0l0,0
						c0,0.1-0.1,0.1-0.1,0.2l0,0l0,0l0,0c0,0,0,0.1-0.1,0.1c0,0,0,0.1,0,0.1l0,0.1c0,0,0,0.1,0,0.1c0,0.1-0.1,0.1-0.1,0.2l0,0l0,0
						c0,0.1,0,0.1-0.1,0.2l0,0l0,0c0,0.1,0,0.2-0.1,0.3c0,0.3,0,0.3,0,0.5c0,0.2,0,0.4,0,0.5c0,0.2,0.1,0.4,0.1,0.4
						c0.1,0.2,0.1,0.3,0.2,0.4c0,0.1,0.1,0.1,0.1,0.2c0,0.1,0.1,0.1,0.1,0.2c0,0,0,0,0,0c0,0.1,0.1,0.2,0.2,0.2
						c0,0.1,0.1,0.1,0.1,0.2c0,0,0.1,0.1,0.1,0.1l0,0c0,0,0.1,0.1,0.1,0.1c0.1,0.1,0.1,0.1,0.2,0.1l0,0c0,0,0,0,0.1,0c0,0,0,0,0.1,0
						c0,0,0,0,0,0l0,0c0,0,0,0,0.1,0c0,0,0,0,0,0c0.1,0,0.2,0.1,0.3,0.1c0,0,0,0,0.1,0c0,0,0,0,0,0l0,0c0,0,0,0,0,0h0l0,0h0
						c0,0,0,0,0,0h0c0,0,0,0,0,0c0.1,0,0.2,0.1,0.4,0.1h0c0,0,0,0,0,0l0,0c0,0,0,0,0,0h0.1c0,0,0.1,0,0.1,0c0,0,0.1,0,0.1,0l0,0l0,0
						c0,0,0,0,0,0c0,0,0.1,0,0.1,0s0.1,0,0.1,0c0.1,0,0.2,0,0.3,0c0.1,0,0.2,0,0.2-0.1c0,0,0,0,0,0c0,0,0.1,0,0.1-0.1l0,0
						c0,0,0.1,0,0.1-0.1h0c0,0,0.1-0.1,0.2-0.1c0,0,0,0,0.1,0c0.1,0,0.1-0.1,0.2-0.1l0,0c0,0,0.1-0.1,0.1-0.1c0,0,0,0,0,0l0,0
						c0,0,0,0,0,0l0.1-0.1c0,0,0.1-0.1,0.2-0.2l0,0l0,0c0-0.1,0.1-0.1,0.1-0.2l0,0l0,0c0-0.1,0.1-0.2,0.2-0.3l0,0c0,0,0-0.1,0.1-0.1
						l0,0l0,0c0,0,0,0,0-0.1c0,0,0-0.1,0-0.1c0,0,0,0,0,0c0,0,0-0.1,0.1-0.1c0-0.1,0-0.1,0.1-0.2l0,0c0-0.1,0.1-0.2,0.1-0.3
						c0-0.1,0-0.1,0-0.2c0-0.1,0-0.1,0-0.2c0,0,0,0,0,0c0-0.1,0-0.2,0-0.3l0,0l0,0C343.3,134.3,343.3,134.2,343.3,134.1L343.3,134.1
						z"/>
					<g>
						<defs>
							<path id="SVGID_00000150084740224783665620000017269491433819652764_" d="M337.4,134.2L337.4,134.2c0,0,0-0.1,0-0.2
								c0,0,0,0,0,0c0,0,0,0,0-0.1c0.1-0.4,0.2-0.8,0.4-1.1l0,0c0,0,0-0.1,0.1-0.1l0,0c0.1-0.2,0.2-0.3,0.4-0.5
								c0.1-0.1,0.1-0.1,0.2-0.2c0,0,0.1-0.1,0.1-0.1l0,0l0,0c0,0,0,0,0,0c0,0,0.1-0.1,0.1-0.1l0,0l0,0c0,0,0,0,0.1,0c0,0,0,0,0,0
								c0,0,0,0,0,0c0,0,0,0,0,0c0.1-0.1,0.2-0.1,0.4-0.2c0,0,0.1,0,0.1,0h0l0,0l0,0l0,0c0,0,0,0,0,0l0,0l0,0h0c0,0,0,0,0,0h0
								c0,0,0,0,0,0l0,0l0,0l0,0h0c0,0,0,0,0,0c0,0,0,0,0,0l0,0c0,0,0,0,0,0c0,0,0,0,0,0h0c0,0,0,0,0,0l0,0c0,0,0,0,0,0h0h0l0,0l0,0
								l0,0h0c0,0,0,0,0,0l0,0c0,0,0,0,0,0h0c0,0,0,0,0,0h0c0,0,0,0,0,0c0,0,0,0,0,0h0l0,0l0,0c0,0,0,0,0,0s0,0,0,0c0,0,0,0,0,0
								s0,0,0,0s0,0,0,0c0,0,0,0,0,0h0c0,0,0,0,0,0c0,0,0,0,0,0c0.1,0,0.1,0,0.2,0c0,0,0,0,0,0s0,0,0,0h0c0,0,0,0,0.1,0c0,0,0,0,0,0
								c0,0,0,0,0.1,0c0,0,0,0,0,0l0,0l0,0l0,0c0,0,0,0,0.1,0c0,0,0,0,0,0c0,0,0.1,0,0.1,0c0.1,0,0.2,0,0.2,0.1c0,0,0.1,0,0.1,0.1
								c0.2,0.1,0.4,0.2,0.6,0.3l0,0l0,0c0,0,0,0,0.1,0l0,0c0,0,0.1,0.1,0.1,0.1l0,0l0,0l0,0l0,0l0,0c0,0,0,0,0,0c0,0,0,0,0,0
								c0,0,0,0,0,0c0,0,0,0,0.1,0.1l0,0l0,0c0,0,0,0,0,0c0.1,0.1,0.1,0.1,0.1,0.1c0,0,0.1,0.1,0.1,0.1c0,0,0,0.1,0.1,0.1l0,0l0,0
								c0,0.1,0.1,0.1,0.1,0.2l0,0l0,0l0,0c0,0,0,0.1,0.1,0.1c0,0,0,0.1,0.1,0.1l0.1,0.1c0,0,0,0.1,0,0.1c0,0.1,0.1,0.1,0.1,0.2l0,0
								l0,0c0,0.1,0,0.2,0.1,0.2l0,0l0,0c0,0.1,0,0.2,0.1,0.3c0,0.3,0,0.3,0,0.5c0,0.2,0,0.4,0,0.5c0,0.2-0.1,0.4-0.1,0.4
								c-0.1,0.2-0.1,0.3-0.2,0.4c0,0.1-0.1,0.1-0.1,0.2c0,0.1-0.1,0.1-0.1,0.2c0,0,0,0,0,0c0,0.1-0.1,0.2-0.2,0.2
								c0,0.1-0.1,0.1-0.1,0.1c0,0-0.1,0.1-0.1,0.1l0,0c0,0.1-0.1,0.1-0.1,0.1c-0.1,0.1-0.1,0.1-0.2,0.1l0,0c0,0,0,0-0.1,0
								c0,0,0,0-0.1,0c0,0,0,0,0,0l0,0c0,0,0,0-0.1,0c0,0,0,0,0,0c-0.1,0-0.2,0.1-0.3,0.1c0,0,0,0-0.1,0c0,0,0,0,0,0l0,0
								c0,0,0,0,0,0h0l0,0h0c0,0,0,0,0,0h0v0c-0.1,0-0.2,0.1-0.4,0.1h0c0,0,0,0,0,0l0,0c0,0,0,0,0,0h-0.1c0,0-0.1,0-0.1,0
								c0,0-0.1,0-0.1,0l0,0c0,0,0,0,0,0c0,0-0.1,0-0.1,0s-0.1,0-0.1,0c-0.1,0-0.2,0-0.3,0c-0.1,0-0.2,0-0.2-0.1c0,0,0,0,0,0
								c0,0-0.1,0-0.1,0l0,0c0,0-0.1,0-0.1-0.1h0c0,0-0.1-0.1-0.2-0.1c0,0,0,0-0.1,0c-0.1,0-0.1-0.1-0.2-0.1l0,0
								c0,0-0.1-0.1-0.1-0.1c0,0,0,0,0,0l0,0c0,0,0,0,0,0l-0.1-0.1c0,0-0.1-0.1-0.2-0.2l0,0l0,0c0-0.1-0.1-0.1-0.1-0.2l0,0l0,0
								c0-0.1-0.1-0.2-0.2-0.3l0,0c0,0,0-0.1-0.1-0.1l0,0l0,0c0,0,0,0,0-0.1c0,0,0-0.1,0-0.1c0,0,0,0,0,0c0,0,0-0.1-0.1-0.1
								c0-0.1,0-0.1-0.1-0.2l0,0c0-0.1-0.1-0.2-0.1-0.3c0-0.1,0-0.1,0-0.2c0-0.1,0-0.1,0-0.2c0,0,0,0,0,0c0-0.1,0-0.2,0-0.3l0,0l0,0
								c0-0.1,0-0.2,0-0.2L337.4,134.2z"/>
						</defs>
						<clipPath id="SVGID_00000045620784446596972050000006252867224612142210_">
							<use xlink:href="#SVGID_00000150084740224783665620000017269491433819652764_"  style="overflow:visible;"/>
						</clipPath>
						<g style="clip-path:url(#SVGID_00000045620784446596972050000006252867224612142210_);">
							<g class="st16">
								
									<image style="overflow:visible;enable-background:new    ;" width="345" height="341" xlink:href="21993C4F.png"  transform="matrix(0.48 0 0 0.48 257.7419 54.165)">
								</image>
							</g>
							<g>
								<g transform="translate(229.38 23.67) scale(.48)">
									
										<image style="overflow:visible;enable-background:new    ;" width="342" height="340" id="image" xlink:href="21993C51.png"  transform="matrix(0.4786 0 0 0.4786 257.9834 51.285)">
									</image>
								</g>
								<g class="st13">
									
										<image style="overflow:visible;enable-background:new    ;" width="339" height="338" xlink:href="21993C53.png"  transform="matrix(0.4786 0 0 0.4786 261.102 53.2043)">
									</image>
								</g>
							</g>
						</g>
					</g>
				</g>
				<g>
					
						<radialGradient id="SVGID_00000082370448155859843300000012800660859941555356_" cx="16.852" cy="158.875" r="3.22" gradientTransform="matrix(1 0 0 -1 0 306)" gradientUnits="userSpaceOnUse">
						<stop  offset="0.7" style="stop-color:#D1EDDE"/>
						<stop  offset="0.79" style="stop-color:#D5EEE1"/>
						<stop  offset="0.88" style="stop-color:#E1F3E9"/>
						<stop  offset="0.97" style="stop-color:#F6FBF8"/>
						<stop  offset="1" style="stop-color:#FFFFFF"/>
					</radialGradient>
					<path style="fill:url(#SVGID_00000082370448155859843300000012800660859941555356_);" d="M34.2,134.1L34.2,134.1
						c0,0,0-0.1,0-0.2c0,0,0,0,0,0c0,0,0,0,0-0.1c-0.1-0.4-0.2-0.7-0.4-1.1l0,0c0,0,0-0.1-0.1-0.1l0,0c-0.1-0.2-0.2-0.3-0.4-0.4
						c-0.1-0.1-0.2-0.1-0.2-0.2c0,0-0.1-0.1-0.2-0.1l0,0l0,0c0,0,0,0,0,0c0,0-0.1,0-0.1-0.1l0,0l0,0c0,0,0,0-0.1,0c0,0,0,0,0,0
						c0,0,0,0,0,0c0,0,0,0,0,0c-0.1-0.1-0.2-0.1-0.4-0.2c0,0-0.1,0-0.1,0h0l0,0l0,0l0,0c0,0,0,0,0,0l0,0l0,0h0c0,0,0,0,0,0h0
						c0,0,0,0,0,0l0,0l0,0l0,0h0c0,0,0,0,0,0c0,0,0,0,0,0l0,0c0,0,0,0,0,0c0,0,0,0,0,0h0c0,0,0,0,0,0l0,0c0,0,0,0,0,0h0h0l0,0l0,0
						l0,0h0c0,0,0,0,0,0l0,0c0,0,0,0,0,0h0c0,0,0,0,0,0c0,0,0,0,0,0c0,0,0,0,0,0s0,0,0,0h0l0,0l0,0c0,0,0,0,0,0s0,0,0,0c0,0,0,0,0,0
						s0,0,0,0s0,0,0,0c0,0,0,0,0,0h0c0,0,0,0,0,0c0,0,0,0,0,0c-0.1,0-0.1,0-0.2,0c0,0,0,0,0,0s0,0,0,0h0c0,0,0,0-0.1,0c0,0,0,0,0,0
						c0,0-0.1,0-0.1,0c0,0,0,0,0,0l0,0l0,0l0,0c0,0,0,0-0.1,0c0,0,0,0,0,0c0,0-0.1,0-0.1,0c-0.1,0-0.2,0-0.2,0.1c0,0-0.1,0-0.1,0.1
						c-0.2,0.1-0.4,0.2-0.6,0.3l0,0l0,0c0,0,0,0-0.1,0l0,0c0,0-0.1,0.1-0.1,0.1l0,0l0,0l0,0l0,0l0,0c0,0,0,0,0,0c0,0,0,0,0,0
						c0,0,0,0,0,0c0,0,0,0-0.1,0.1l0,0l0,0c0,0,0,0,0,0c-0.1,0.1-0.1,0.1-0.1,0.1c0,0-0.1,0.1-0.1,0.1c0,0,0,0.1-0.1,0.1l0,0l0,0
						c0,0.1-0.1,0.1-0.1,0.2l0,0l0,0l0,0c0,0,0,0.1-0.1,0.1c0,0,0,0.1,0,0.1l-0.1,0.1c0,0,0,0.1,0,0.1c0,0.1-0.1,0.1-0.1,0.2l0,0
						l0,0c0,0.1-0.1,0.1-0.1,0.2l0,0l0,0c0,0.1-0.1,0.2-0.1,0.3c0,0.3,0,0.3,0,0.5c0,0.2,0,0.4,0,0.5c0,0.2,0.1,0.4,0.1,0.4
						c0.1,0.2,0.1,0.3,0.2,0.4c0,0.1,0.1,0.1,0.1,0.2c0,0.1,0.1,0.1,0.1,0.2c0,0,0,0,0,0c0.1,0.1,0.1,0.2,0.2,0.2
						c0,0.1,0.1,0.1,0.1,0.2c0,0,0.1,0.1,0.1,0.1l0,0c0,0,0.1,0.1,0.1,0.1c0.1,0.1,0.1,0.1,0.2,0.1l0,0c0,0,0,0,0.1,0c0,0,0,0,0.1,0
						c0,0,0,0,0,0l0,0c0,0,0,0,0.1,0c0,0,0,0,0,0c0.1,0,0.2,0.1,0.3,0.1c0,0,0.1,0,0.1,0c0,0,0,0,0,0l0,0c0,0,0,0,0,0h0l0,0h0
						c0,0,0,0,0,0h0c0,0,0,0,0,0c0.1,0,0.2,0.1,0.4,0.1h0c0,0,0,0,0,0l0,0c0,0,0,0,0,0h0.1c0,0,0.1,0,0.1,0c0,0,0.1,0,0.1,0l0,0l0,0
						c0,0,0,0,0,0c0,0,0.1,0,0.1,0c0,0,0.1,0,0.1,0c0.1,0,0.2,0,0.3,0c0.1,0,0.2,0,0.2-0.1c0,0,0,0,0,0c0,0,0.1,0,0.2-0.1l0,0
						c0,0,0.1,0,0.1-0.1h0c0,0,0.1-0.1,0.2-0.1c0,0,0,0,0.1,0c0.1,0,0.1-0.1,0.2-0.1l0,0c0,0,0.1-0.1,0.1-0.1c0,0,0,0,0,0l0,0
						c0,0,0,0,0,0l0.1-0.1c0,0,0.1-0.1,0.2-0.2l0,0l0,0c0-0.1,0.1-0.1,0.1-0.2l0,0l0,0c0-0.1,0.1-0.2,0.2-0.3l0,0
						c0,0,0.1-0.1,0.1-0.1l0,0l0,0c0,0,0,0,0-0.1c0,0,0-0.1,0-0.1c0,0,0,0,0,0c0,0,0-0.1,0.1-0.1c0-0.1,0-0.1,0.1-0.2l0,0
						c0-0.1,0.1-0.2,0.1-0.3c0-0.1,0-0.1,0-0.2c0-0.1,0-0.1,0-0.2c0,0,0,0,0,0c0-0.1,0-0.2,0-0.3l0,0l0,0
						C34.3,134.3,34.3,134.2,34.2,134.1L34.2,134.1z"/>
					<g>
						<defs>
							<path id="SVGID_00000062156392564320551970000002419077603901681342_" d="M28.4,134.2L28.4,134.2c0,0,0-0.1,0-0.2
								c0,0,0,0,0,0c0,0,0,0,0-0.1c0.1-0.4,0.2-0.8,0.4-1.1l0,0c0,0,0-0.1,0.1-0.1l0,0c0.1-0.2,0.2-0.3,0.4-0.5
								c0.1-0.1,0.1-0.1,0.2-0.2c0.1,0,0.1-0.1,0.1-0.1l0,0l0,0c0,0,0,0,0,0c0,0,0.1-0.1,0.1-0.1l0,0l0,0c0,0,0,0,0.1,0c0,0,0,0,0,0
								c0,0,0,0,0,0c0,0,0,0,0,0c0.1-0.1,0.2-0.1,0.4-0.2c0,0,0.1,0,0.1,0h0l0,0l0,0l0,0c0,0,0,0,0,0l0,0l0,0h0c0,0,0,0,0,0h0
								c0,0,0,0,0,0l0,0l0,0l0,0h0c0,0,0,0,0,0c0,0,0,0,0,0l0,0c0,0,0,0,0,0c0,0,0,0,0,0h0c0,0,0,0,0,0l0,0c0,0,0,0,0,0h0h0l0,0l0,0
								l0,0h0c0,0,0,0,0,0l0,0c0,0,0,0,0,0h0c0,0,0,0,0,0c0,0,0,0,0,0c0,0,0,0,0,0c0,0,0,0,0,0h0l0,0l0,0c0,0,0,0,0,0s0,0,0,0
								c0,0,0,0,0,0c0,0,0,0,0,0s0,0,0,0c0,0,0,0,0,0h0c0,0,0,0,0,0c0,0,0,0,0,0c0.1,0,0.1,0,0.2,0c0,0,0,0,0,0s0,0,0,0h0
								c0,0,0,0,0.1,0c0,0,0,0,0,0c0,0,0.1,0,0.1,0c0,0,0,0,0,0l0,0l0,0l0,0c0,0,0,0,0.1,0c0,0,0,0,0,0c0,0,0.1,0,0.1,0
								c0.1,0,0.2,0,0.2,0.1c0,0,0.1,0,0.2,0.1c0.2,0.1,0.4,0.2,0.6,0.3l0,0l0,0c0,0,0,0,0.1,0l0,0c0,0,0.1,0.1,0.1,0.1l0,0l0,0l0,0
								l0,0l0,0c0,0,0,0,0,0c0,0,0,0,0.1,0c0,0,0,0,0,0c0,0,0,0,0.1,0.1l0,0l0,0c0,0,0,0,0,0c0.1,0.1,0.2,0.1,0.2,0.1
								c0,0,0.1,0.1,0.1,0.1c0,0,0,0.1,0.1,0.1l0,0l0,0c0,0.1,0.1,0.1,0.1,0.2l0,0l0,0l0,0c0,0,0,0.1,0.1,0.1c0,0,0,0.1,0.1,0.1
								l0.1,0.1c0,0,0,0.1,0,0.1c0,0.1,0.1,0.1,0.1,0.2l0,0l0,0c0,0.1,0.1,0.2,0.1,0.2l0,0l0,0c0,0.1,0.1,0.2,0.1,0.3
								c0,0.3,0,0.3,0,0.5c0,0.2,0,0.4,0,0.5c0,0.2-0.1,0.4-0.1,0.4c-0.1,0.2-0.1,0.3-0.2,0.4c0,0.1-0.1,0.1-0.1,0.2
								c0,0.1-0.1,0.1-0.1,0.2c0,0,0,0,0,0c0,0.1-0.1,0.2-0.2,0.2c0,0.1-0.1,0.1-0.1,0.1c0,0-0.1,0.1-0.2,0.1l0,0
								c0,0.1-0.1,0.1-0.1,0.1c-0.1,0.1-0.1,0.1-0.2,0.1l0,0c0,0,0,0-0.1,0c0,0,0,0-0.1,0c0,0,0,0,0,0l0,0c0,0,0,0-0.1,0h0
								c-0.1,0.1-0.2,0.1-0.3,0.1c0,0-0.1,0-0.1,0c0,0,0,0,0,0l0,0c0,0,0,0,0,0h0l0,0h0c0,0,0,0,0,0h0v0c-0.1,0-0.2,0.1-0.4,0.1h0
								c0,0,0,0,0,0l0,0c0,0,0,0,0,0h-0.1c0,0-0.1,0-0.1,0c0,0-0.1,0-0.1,0l0,0c0,0,0,0,0,0c0,0-0.1,0-0.1,0c0,0-0.1,0-0.1,0
								c-0.1,0-0.2,0-0.3,0c-0.1,0-0.2,0-0.2-0.1c0,0,0,0,0,0c-0.1,0-0.1,0-0.1,0l-0.1,0c0,0-0.1,0-0.1-0.1h0c0,0-0.1-0.1-0.2-0.1
								c0,0,0,0-0.1,0c-0.1,0-0.1-0.1-0.2-0.1l0,0c0,0-0.1-0.1-0.1-0.1c0,0,0,0,0,0l0,0c0,0,0,0,0,0l-0.1-0.1c0,0-0.1-0.1-0.2-0.2
								l0,0l0,0c0-0.1-0.1-0.1-0.1-0.2l0,0l0,0c0-0.1-0.1-0.2-0.2-0.3l0,0c0,0,0-0.1-0.1-0.1l0,0l0,0c0,0,0,0,0-0.1c0,0,0-0.1,0-0.1
								c0,0,0,0,0,0c0,0,0-0.1-0.1-0.1c0-0.1-0.1-0.1-0.1-0.2l0,0c0-0.1-0.1-0.2-0.1-0.3c0-0.1,0-0.1,0-0.2c0-0.1,0-0.1,0-0.2
								c0,0,0,0,0,0c0-0.1,0-0.2,0-0.3l0,0h0.1C28.4,134.3,28.4,134.3,28.4,134.2L28.4,134.2z"/>
						</defs>
						<clipPath id="SVGID_00000092439842999021782720000012087070502320874174_">
							<use xlink:href="#SVGID_00000062156392564320551970000002419077603901681342_"  style="overflow:visible;"/>
						</clipPath>
						<g style="clip-path:url(#SVGID_00000092439842999021782720000012087070502320874174_);">
							<g class="st16">
								
									<image style="overflow:visible;enable-background:new    ;" width="345" height="341" xlink:href="21993C50.png"  transform="matrix(0.48 0 0 0.48 -51.378 54.165)">
								</image>
							</g>
							<g>
								<g transform="translate(-79.26 23.67) scale(.48)">
									
										<image style="overflow:visible;enable-background:new    ;" width="342" height="340" id="image_00000168829320596714038160000013547055602197190043_" xlink:href="21993C57.png"  transform="matrix(0.4786 0 0 0.4786 -50.6566 51.285)">
									</image>
								</g>
								<g class="st13">
									
										<image style="overflow:visible;enable-background:new    ;" width="337" height="338" xlink:href="21993C74.png"  transform="matrix(0.48 0 0 0.48 -47.5381 52.965)">
									</image>
								</g>
							</g>
						</g>
					</g>
				</g>
				<g>
					<g>
						<defs>
							<path id="SVGID_00000130647819323342337200000004397165535994207160_" d="M132.8,153.6H53.9v37.5c0,7.1,5.8,12.9,12.9,12.9
								h66L132.8,153.6L132.8,153.6z"/>
						</defs>
						<clipPath id="SVGID_00000161622675186463115110000015585711962314915006_">
							<use xlink:href="#SVGID_00000130647819323342337200000004397165535994207160_"  style="overflow:visible;"/>
						</clipPath>
						<g style="clip-path:url(#SVGID_00000161622675186463115110000015585711962314915006_);">
							<g class="st6">
								
									<image style="overflow:visible;enable-background:new    ;" width="455" height="454" xlink:href="21993C77.png"  transform="matrix(0.4789 0 0 0.4789 -24.018 91.3645)">
								</image>
							</g>
						</g>
					</g>
					<g>
						
							<linearGradient id="SVGID_00000047772920263658047890000014760863717781736609_" gradientUnits="userSpaceOnUse" x1="107.9482" y1="79.0576" x2="100.9183" y2="69.1776" gradientTransform="matrix(1 0 0 -1 0 306)">
							<stop  offset="0.36" style="stop-color:#9FA9FF"/>
							<stop  offset="0.5" style="stop-color:#909CFF"/>
							<stop  offset="0.65" style="stop-color:#7A88FF"/>
						</linearGradient>
						<path style="fill:url(#SVGID_00000047772920263658047890000014760863717781736609_);" d="M109.9,231.6c0,2.9-2.4,5.3-5.3,5.3
							s-5.3-2.4-5.3-5.3s2.4-5.3,5.3-5.3S109.9,228.7,109.9,231.6z"/>
						<path class="st7" d="M104.7,236.5c-2.7,0-4.9-2.2-4.9-4.9s2.2-4.9,4.9-4.9s4.9,2.2,4.9,4.9S107.4,236.5,104.7,236.5z"/>
						
							<linearGradient id="SVGID_00000057829429694302500210000001866569649741824680_" gradientUnits="userSpaceOnUse" x1="109.1439" y1="141.8239" x2="75.1939" y2="82.3639" gradientTransform="matrix(1 0 0 -1 0 306)">
							<stop  offset="0.36" style="stop-color:#9FA9FF"/>
							<stop  offset="0.5" style="stop-color:#909CFF"/>
							<stop  offset="0.65" style="stop-color:#7A88FF"/>
						</linearGradient>
						<circle style="fill:url(#SVGID_00000057829429694302500210000001866569649741824680_);" cx="92.7" cy="193" r="31.3"/>
						<circle class="st7" cx="92.7" cy="193" r="30.9"/>
						<g>
							<defs>
								<circle id="SVGID_00000114061816590501531860000012830302491359718837_" cx="92.7" cy="193" r="31.3"/>
							</defs>
							<clipPath id="SVGID_00000081619146729410688390000009372042784395401391_">
								<use xlink:href="#SVGID_00000114061816590501531860000012830302491359718837_"  style="overflow:visible;"/>
							</clipPath>
							<g style="clip-path:url(#SVGID_00000081619146729410688390000009372042784395401391_);">
								<g class="st29">
									
										<image style="overflow:visible;enable-background:new    ;" width="378" height="486" xlink:href="21993C75.png"  transform="matrix(0.48 0 0 0.48 0.462 94.965)">
									</image>
								</g>
							</g>
						</g>
						<g>
							<defs>
								<circle id="SVGID_00000183246820379271098640000009580523605243362438_" cx="104.7" cy="231.6" r="5.3"/>
							</defs>
							<clipPath id="SVGID_00000130632958903937309990000014885238455590617510_">
								<use xlink:href="#SVGID_00000183246820379271098640000009580523605243362438_"  style="overflow:visible;"/>
							</clipPath>
							<g style="clip-path:url(#SVGID_00000130632958903937309990000014885238455590617510_);">
								<g class="st29">
									
										<image style="overflow:visible;enable-background:new    ;" width="349" height="350" xlink:href="21993C7B.png"  transform="matrix(0.4786 0 0 0.4786 18.222 150.6457)">
									</image>
								</g>
							</g>
						</g>
						
							<linearGradient id="SVGID_00000049920609573214072070000001884526639501704583_" gradientUnits="userSpaceOnUse" x1="81.012" y1="94.555" x2="105.4019" y2="94.555" gradientTransform="matrix(1 0 0 -1 0 306)">
							<stop  offset="0" style="stop-color:#B8D2FF"/>
							<stop  offset="1" style="stop-color:#A2C4FF"/>
						</linearGradient>
						<path style="fill:url(#SVGID_00000049920609573214072070000001884526639501704583_);" d="M105.2,231c-0.2-0.2-0.6-0.2-0.9,0
							l-10.9,10.9v-48.2l7.8-7.8c0.3-0.3,0.3-0.8,0-1.1c-0.3-0.3-0.8-0.3-1.1,0l-6.7,6.7v-15.6c0-0.4-0.4-0.8-0.8-0.8
							s-0.8,0.4-0.8,0.8v33.6l-9.5-9.5c-0.3-0.3-0.8-0.3-1.1,0c-0.3,0.3-0.3,0.8,0,1.1l10.6,10.6V247c0,0.4,0.4,0.8,0.8,0.8
							s0.8-0.4,0.8-0.8v-3.4l11.8-11.8C105.5,231.6,105.5,231.2,105.2,231L105.2,231z"/>
						
							<linearGradient id="SVGID_00000173875560862697323720000015229687394432219778_" gradientUnits="userSpaceOnUse" x1="75.072" y1="44" x2="109.712" y2="44" gradientTransform="matrix(1 0 0 -1 0 306)">
							<stop  offset="6.000000e-02" style="stop-color:#F3F7FF"/>
							<stop  offset="0.12" style="stop-color:#EAEFF6"/>
							<stop  offset="0.27" style="stop-color:#DCE1E6"/>
							<stop  offset="0.39" style="stop-color:#D8DDE1"/>
							<stop  offset="0.53" style="stop-color:#E3E7ED"/>
							<stop  offset="0.76" style="stop-color:#EFF3FA"/>
							<stop  offset="0.97" style="stop-color:#F3F7FF"/>
						</linearGradient>
						<polygon style="fill:url(#SVGID_00000173875560862697323720000015229687394432219778_);" points="105.7,277 79.1,277 
							75.1,247 109.7,247 						"/>
					</g>
				</g>
				<g>
					<g>
						<defs>
							<path id="SVGID_00000170243090416208285370000008905282809773487547_" d="M265.2,204h41.2c7.1,0,12.9-5.8,12.9-12.9v-55.8
								h-54.1V204z"/>
						</defs>
						<clipPath id="SVGID_00000008107150693601717240000014653545068587199134_">
							<use xlink:href="#SVGID_00000170243090416208285370000008905282809773487547_"  style="overflow:visible;"/>
						</clipPath>
						<g style="clip-path:url(#SVGID_00000008107150693601717240000014653545068587199134_);">
							<g class="st6">
								
									<image style="overflow:visible;enable-background:new    ;" width="396" height="479" xlink:href="21993C7C.png"  transform="matrix(0.4788 0 0 0.4788 203.9819 107.2553)">
								</image>
							</g>
							<g class="st6">
								
									<image style="overflow:visible;enable-background:new    ;" width="398" height="537" xlink:href="21993C7F.png"  transform="matrix(0.4788 0 0 0.4788 216.942 77.2888)">
								</image>
							</g>
						</g>
					</g>
					<g>
						
							<linearGradient id="SVGID_00000127760296562655207590000005583168365377214084_" gradientUnits="userSpaceOnUse" x1="298.3057" y1="127.1952" x2="304.5157" y2="77.4352" gradientTransform="matrix(1 0 0 -1 0 306)">
							<stop  offset="0.39" style="stop-color:#7B9AF2"/>
							<stop  offset="0.51" style="stop-color:#5352EE"/>
							<stop  offset="0.63" style="stop-color:#3130C8"/>
						</linearGradient>
						<path style="fill:url(#SVGID_00000127760296562655207590000005583168365377214084_);" d="M312.2,255.5c-1.7,0.5-3.4,0.5-4.6-1
							c-0.9-1.2-1.2-2.9-1.9-4.3c-2.4-5.2-9.2-7.6-10.4-13.2c-0.6-2.7,0.3-5.5,1-8.2s1.1-5.8-0.4-8.1c-0.9-1.4-2.4-2.4-3.5-3.7
							c-1.9-2.2-2.3-5.3-1.9-8.2c0.6-4.4,3.4-7.8,1.9-12.3c-0.7-2.3-2.6-3.9-4.1-5.9c-2.1-2.9-3.1-9.5,1.5-10.8
							c2-0.6,4.2,0.6,5.4,2.3c1.2,1.7,1.7,3.8,2,5.9c0.4,2.1,0.7,4.2,1.6,6c3,5.7,11,7,14.4,12.5c2.4,3.8,1.9,8.8,0.9,13.2
							s-2.1,9-0.9,13.4c1.3,4.7,5.5,8.6,5.6,13.5c0.1,3.1-1.7,6.2-4.4,7.8C313.9,254.9,313.1,255.3,312.2,255.5L312.2,255.5z"/>
						<g>
							<defs>
								<path id="SVGID_00000069358861406507589550000005095991020408952995_" d="M312.2,255.5c-1.7,0.5-3.4,0.5-4.6-1
									c-0.9-1.2-1.2-2.9-1.9-4.3c-2.4-5.2-9.2-7.6-10.4-13.2c-0.6-2.7,0.3-5.5,1-8.2s1.1-5.8-0.4-8.1c-0.9-1.4-2.4-2.4-3.5-3.7
									c-1.9-2.2-2.3-5.3-1.9-8.2c0.6-4.4,3.4-7.8,1.9-12.3c-0.7-2.3-2.6-3.9-4.1-5.9c-2.1-2.9-3.1-9.5,1.5-10.8
									c2-0.6,4.2,0.6,5.4,2.3c1.2,1.7,1.7,3.8,2,5.9c0.4,2.1,0.7,4.2,1.6,6c3,5.7,11,7,14.4,12.5c2.4,3.8,1.9,8.8,0.9,13.2
									s-2.1,9-0.9,13.4c1.3,4.7,5.5,8.6,5.6,13.5c0.1,3.1-1.7,6.2-4.4,7.8C313.9,254.9,313.1,255.3,312.2,255.5L312.2,255.5z"/>
							</defs>
							<clipPath id="SVGID_00000004510999431005596760000016866635677442343613_">
								<use xlink:href="#SVGID_00000069358861406507589550000005095991020408952995_"  style="overflow:visible;"/>
							</clipPath>
							<g style="clip-path:url(#SVGID_00000004510999431005596760000016866635677442343613_);">
								
									<linearGradient id="SVGID_00000162312868554931812870000010247737153288529562_" gradientUnits="userSpaceOnUse" x1="286.5612" y1="88.1896" x2="319.0252" y2="88.1896" gradientTransform="matrix(1 0 0 -1 0 306)">
									<stop  offset="0" style="stop-color:#636FF0"/>
									<stop  offset="1" style="stop-color:#5352EE"/>
								</linearGradient>
								<path style="fill:url(#SVGID_00000162312868554931812870000010247737153288529562_);" d="M312.2,255.5
									c-1.7,0.5-3.4,0.5-4.6-1c-0.9-1.2-1.2-2.9-1.9-4.3c-2.4-5.2-9.2-7.6-10.4-13.2c-0.6-2.7,0.3-5.5,1-8.2s1.1-5.8-0.4-8.1
									c-0.9-1.4-2.4-2.4-3.5-3.7c-1.9-2.2-2.3-5.3-1.9-8.2c0.6-4.4,3.4-7.8,1.9-12.3c-0.7-2.3-2.6-3.9-4.1-5.9
									c-2.1-2.9-3.1-9.5,1.5-10.8c2-0.6,4.2,0.6,5.4,2.3c1.2,1.7,1.7,3.8,2,5.9c0.4,2.1,0.7,4.2,1.6,6c3,5.7,11,7,14.4,12.5
									c2.4,3.8,1.9,8.8,0.9,13.2s-2.1,9-0.9,13.4c1.3,4.7,5.5,8.6,5.6,13.5c0.1,3.1-1.7,6.2-4.4,7.8
									C313.9,254.9,313.1,255.3,312.2,255.5L312.2,255.5z"/>
								
									<linearGradient id="SVGID_00000032646345912493016150000010138987311116335280_" gradientUnits="userSpaceOnUse" x1="296.4171" y1="127.6641" x2="303.5271" y2="89.8741" gradientTransform="matrix(1 0 0 -1 0 306)">
									<stop  offset="0" style="stop-color:#636FF0"/>
									<stop  offset="1" style="stop-color:#5352EE"/>
								</linearGradient>
								<path style="fill:url(#SVGID_00000032646345912493016150000010138987311116335280_);" d="M310.4,255.5c-1,0-1.8-0.4-2.4-1.2
									c-0.6-0.8-0.9-1.7-1.2-2.6c-0.2-0.5-0.4-1.1-0.6-1.6c-1.1-2.4-3.1-4.2-5.1-6c-2.4-2.1-4.6-4.2-5.3-7.1
									c-0.5-2.3,0.1-4.7,0.7-7c0.1-0.4,0.2-0.7,0.3-1c0.6-2.4,1.2-5.8-0.5-8.5c-0.6-0.9-1.3-1.6-2-2.2c-0.5-0.5-1-1-1.5-1.5
									c-1.6-1.9-2.3-4.8-1.8-7.9c0.2-1.5,0.7-2.9,1.1-4.3c0.9-2.5,1.8-5.2,0.8-8.2c-0.5-1.7-1.7-3-2.8-4.3
									c-0.5-0.5-0.9-1.1-1.4-1.7c-1.3-1.8-2.2-5.2-1.4-7.6c0.5-1.3,1.4-2.2,2.7-2.5c0.3-0.1,0.6-0.1,0.9-0.1
									c1.5,0,3.1,0.9,4.1,2.3c1.2,1.7,1.6,3.7,2,5.7l0.1,0.6c0.3,1.9,0.7,3.9,1.6,5.6c1.6,3,4.6,4.9,7.5,6.6
									c2.6,1.6,5.4,3.3,6.9,5.8c2.3,3.8,1.8,8.6,0.9,12.9c-0.1,0.4-0.2,0.9-0.3,1.3c-0.9,4-1.7,8.2-0.6,12.2
									c0.6,2,1.6,3.9,2.7,5.7c1.5,2.6,2.8,4.9,2.9,7.7c0.1,2.9-1.6,5.9-4.2,7.4c-0.8,0.5-1.6,0.9-2.4,1.1
									C311.5,255.3,310.9,255.4,310.4,255.5L310.4,255.5z"/>
								<g class="st6">
									
										<image style="overflow:visible;enable-background:new    ;" width="388" height="443" xlink:href="21993C7D.png"  transform="matrix(0.4789 0 0 0.4789 212.8322 119.445)">
									</image>
								</g>
							</g>
						</g>
					</g>
					<g>
						
							<linearGradient id="SVGID_00000004533321577486461330000010445070090851082668_" gradientUnits="userSpaceOnUse" x1="332.8594" y1="160.2381" x2="305.3993" y2="48.3981" gradientTransform="matrix(1 0 0 -1 0 306)">
							<stop  offset="0.35" style="stop-color:#BEF6F4"/>
							<stop  offset="0.5" style="stop-color:#3AE4DF"/>
							<stop  offset="0.64" style="stop-color:#00AFC9"/>
						</linearGradient>
						<path style="fill:url(#SVGID_00000004533321577486461330000010445070090851082668_);" d="M305.3,252.5
							c-1.6-1.3-2.7-3.2-3.2-5.2c-0.6-2.7-0.2-5.6,0.9-8.2c0.8-1.9,2-3.7,2.5-5.7c1.5-6.2-3.6-11.4-4.7-17.2
							c-1.2-6.2,2.4-10.4,6.2-14.8c3.5-4.1,5.3-7.9,4.4-13.2c-0.9-5.3-0.1-10.6,2.9-15.1c1.9-2.8,4.6-5.2,6.2-8.2
							c2.3-4.2,1.1-8.2,1.7-12.7c0.5-3.7,3.5-7,7.4-5.2c2,0.9,3.4,3,3.9,5.2c0.6,2.6,0.5,5.7-0.6,8.1c-0.7,1.6-1.6,3.1-2.1,4.7
							c-2.8,7.9,4.6,15.8,0.2,23.4c-0.9,1.5-2.2,2.8-3.2,4.3c-1.6,2.3-2,4.8-1.7,7.5c0.4,3.6,1.9,7,3.1,10.4c1.2,3.4,2,7.2,0.9,10.7
							c-1.2,3.9-4.4,6.6-6.5,10c-3.8,6.5,1.8,14.6-4.7,19.8c-2.8,2.2-8.4,3.9-11.8,2.4C306.5,253.3,305.9,252.9,305.3,252.5
							L305.3,252.5z"/>
						
							<linearGradient id="SVGID_00000008145568636145803200000001447436505314608001_" gradientUnits="userSpaceOnUse" x1="331.5491" y1="151.9632" x2="308.3391" y2="61.5331" gradientTransform="matrix(1 0 0 -1 0 306)">
							<stop  offset="0" style="stop-color:#84EEEB"/>
							<stop  offset="1" style="stop-color:#3AE4DF"/>
						</linearGradient>
						<path style="fill:url(#SVGID_00000008145568636145803200000001447436505314608001_);" d="M310.2,253.7c-1.1,0-2.1-0.2-2.9-0.5
							c-0.6-0.3-1.2-0.6-1.7-1.1c-1.5-1.2-2.6-3-3.1-5c-0.6-2.4-0.3-5.3,0.9-7.9c0.3-0.6,0.6-1.3,1-1.9c0.6-1.2,1.3-2.5,1.6-3.8
							c1-4-0.7-7.6-2.3-11.1c-1-2-1.9-4.1-2.4-6.3c-1.1-6,2.5-10.3,6.1-14.4c4-4.7,5.3-8.6,4.5-13.6c-1-5.5,0-10.7,2.9-14.9
							c0.8-1.2,1.8-2.3,2.7-3.4c1.3-1.5,2.6-3.1,3.5-4.8c1.6-2.9,1.6-5.6,1.6-8.4c0-1.4,0-2.9,0.2-4.4c0.4-2.7,2.2-5.3,4.8-5.3
							c0.6,0,1.3,0.2,2,0.5c1.8,0.8,3.2,2.7,3.7,4.9c0.6,2.6,0.4,5.6-0.6,7.9c-0.3,0.6-0.5,1.2-0.8,1.8c-0.5,0.9-1,1.9-1.3,3
							c-1.3,3.8-0.4,7.5,0.5,11.2c1,4.2,2,8.3-0.3,12.2c-0.5,0.9-1.2,1.8-1.9,2.6c-0.4,0.5-0.9,1.1-1.3,1.6
							c-1.5,2.1-2.1,4.7-1.8,7.8c0.3,2.8,1.3,5.5,2.2,8.1c0.3,0.8,0.6,1.6,0.9,2.4c1,3,2,6.8,0.9,10.4c-0.8,2.4-2.2,4.2-3.8,6.2
							c-0.9,1.2-1.9,2.4-2.6,3.7c-1.7,2.9-1.6,6.1-1.4,9.3c0.2,3.9,0.3,7.6-3.2,10.4C316.5,252.6,313,253.8,310.2,253.7L310.2,253.7
							z"/>
						<path class="st1" d="M327.7,157.6c-0.3-0.1-0.6,0.2-0.7,0.5l-5.5,30.2l-2.6-10.4c-0.1-0.3-0.4-0.5-0.7-0.4
							c-0.3,0.1-0.5,0.4-0.4,0.7l3.3,13l-8,44.2l-2.6-18.3c0-0.3-0.4-0.6-0.7-0.5c-0.3,0.1-0.6,0.4-0.5,0.7l3.1,21.9l-1.8,9.9
							c-0.1,0.3,0.2,0.6,0.5,0.7c0,0,0.1,0,0.1,0c0.3,0,0.5-0.2,0.6-0.5l5.5-30.2l6.6-10.7c0.2-0.3,0.1-0.7-0.2-0.8
							c-0.3-0.2-0.7-0.1-0.8,0.2l-5,8.1l10.5-57.6C328.3,158,328,157.7,327.7,157.6L327.7,157.6z"/>
						<g>
							<defs>
								<path id="SVGID_00000129911752370945839120000016635178905592498078_" d="M324.1,230.7h-18.2c0,0.9,0,1.8-0.3,2.8
									c-0.5,2-1.7,3.8-2.5,5.7c-1.1,2.6-1.6,5.5-0.9,8.2c0.5,2,1.6,3.9,3.2,5.2c0.5,0.4,1.1,0.8,1.8,1.1c3.4,1.5,9-0.2,11.8-2.4
									c6.6-5.2,0.9-13.4,4.7-19.8C323.8,231.1,324,230.9,324.1,230.7L324.1,230.7z"/>
							</defs>
							<clipPath id="SVGID_00000036237130503110763360000009333366901069478311_">
								<use xlink:href="#SVGID_00000129911752370945839120000016635178905592498078_"  style="overflow:visible;"/>
							</clipPath>
							<g style="clip-path:url(#SVGID_00000036237130503110763360000009333366901069478311_);">
								<g class="st6">
									
										<image style="overflow:visible;enable-background:new    ;" width="402" height="364" xlink:href="21993C7A.png"  transform="matrix(0.48 0 0 0.48 213.582 162.165)">
									</image>
								</g>
							</g>
						</g>
					</g>
					
						<linearGradient id="SVGID_00000044875249626162850230000012859271550602315403_" gradientUnits="userSpaceOnUse" x1="296.9119" y1="44.51" x2="326.5919" y2="44.51" gradientTransform="matrix(1 0 0 -1 0 306)">
						<stop  offset="6.000000e-02" style="stop-color:#F3F7FF"/>
						<stop  offset="0.12" style="stop-color:#EAEFF6"/>
						<stop  offset="0.25" style="stop-color:#DCE1E6"/>
						<stop  offset="0.35" style="stop-color:#D8DDE1"/>
						<stop  offset="0.51" style="stop-color:#E3E7ED"/>
						<stop  offset="0.75" style="stop-color:#EFF3FA"/>
						<stop  offset="0.97" style="stop-color:#F3F7FF"/>
					</linearGradient>
					<polygon style="fill:url(#SVGID_00000044875249626162850230000012859271550602315403_);" points="326.6,245.4 296.9,245.4 
						298.5,277.6 325,277.6 					"/>
				</g>
				<g>
					<g>
						<defs>
							<path id="SVGID_00000080928244519678942260000005484178025882280877_" d="M106.7,126.8V74H66.8c-7.1,0-12.9,5.8-12.9,12.9
								v39.9H106.7z"/>
						</defs>
						<clipPath id="SVGID_00000068670584004114747030000015453608877812911269_">
							<use xlink:href="#SVGID_00000080928244519678942260000005484178025882280877_"  style="overflow:visible;"/>
						</clipPath>
						<g style="clip-path:url(#SVGID_00000068670584004114747030000015453608877812911269_);">
							<g class="st6">
								
									<image style="overflow:visible;enable-background:new    ;" width="437" height="440" xlink:href="21993C76.png"  transform="matrix(0.4789 0 0 0.4789 -55.2097 -13.525)">
								</image>
							</g>
						</g>
					</g>
					<g>
						<defs>
							<path id="SVGID_00000020390277397249243970000009501197803616632748_" d="M56.2,57.8c-13.8,0-24.9,11.2-24.9,24.9
								s11.2,24.9,24.9,24.9s24.9-11.2,24.9-24.9S70,57.8,56.2,57.8z M56.2,94.6c-6.5,0-11.8-5.3-11.8-11.8
								c0-6.5,5.3-11.8,11.8-11.8s11.8,5.3,11.8,11.8C68.1,89.3,62.8,94.6,56.2,94.6z"/>
						</defs>
						<clipPath id="SVGID_00000011022399816200028570000001697082061253067663_">
							<use xlink:href="#SVGID_00000020390277397249243970000009501197803616632748_"  style="overflow:visible;"/>
						</clipPath>
						<g style="clip-path:url(#SVGID_00000011022399816200028570000001697082061253067663_);">
							<g>
								<rect x="30.2" y="56.7" class="st0" width="52.1" height="26"/>
								<rect x="30.2" y="82.8" class="st7" width="52.1" height="26"/>
								<g class="st44">
									
										<image style="overflow:visible;enable-background:new    ;" width="447" height="446" xlink:href="21993C49.png"  transform="matrix(0.4789 0 0 0.4789 -50.8875 -23.605)">
									</image>
								</g>
								<g class="st16">
									
										<image style="overflow:visible;enable-background:new    ;" width="429" height="429" xlink:href="21993C9B.png"  transform="matrix(0.4789 0 0 0.4789 -45.128 -20.965)">
									</image>
								</g>
							</g>
						</g>
					</g>
				</g>
				<g>
					<g>
						<defs>
							<path id="SVGID_00000087413331492980317380000003724968687888790705_" d="M319.4,106.5V86.9c0-7.1-5.8-12.9-12.9-12.9H146.7
								v32.6C146.7,106.5,319.4,106.5,319.4,106.5z"/>
						</defs>
						<clipPath id="SVGID_00000003076340484026481840000017547556595316760508_">
							<use xlink:href="#SVGID_00000087413331492980317380000003724968687888790705_"  style="overflow:visible;"/>
						</clipPath>
						<g style="clip-path:url(#SVGID_00000003076340484026481840000017547556595316760508_);">
							<g class="st6">
								
									<image style="overflow:visible;enable-background:new    ;" width="686" height="412" xlink:href="21993C99.png"  transform="matrix(0.4788 0 0 0.4788 83.1816 -23.595)">
								</image>
							</g>
						</g>
					</g>
					<g>
						
							<linearGradient id="SVGID_00000137817319058922880070000001504005557077588902_" gradientUnits="userSpaceOnUse" x1="255.3104" y1="253.7053" x2="247.6804" y2="215.2153" gradientTransform="matrix(1 0 0 -1 0 306)">
							<stop  offset="0.38" style="stop-color:#ACD1FF"/>
							<stop  offset="0.5" style="stop-color:#A2C4FF"/>
							<stop  offset="0.64" style="stop-color:#7FAEFF"/>
						</linearGradient>
						<path style="fill:url(#SVGID_00000137817319058922880070000001504005557077588902_);" d="M332,88.9H171.4
							c-2,0-3.7-1.7-3.7-3.7V56.1c0-2,1.6-3.7,3.5-3.7h160.6c2.2,0,3.9,1.7,3.9,3.7v29.2C335.7,87.3,334,88.9,332,88.9z"/>
						<path class="st47" d="M335.3,56.1v29.2c0,1.8-1.5,3.3-3.3,3.3H171.4c-1.8,0-3.3-1.5-3.3-3.3V56.1c0-1.8,1.5-3.3,3.3-3.3H332
							C333.8,52.7,335.3,54.2,335.3,56.1z"/>
					</g>
					<g>
						<g>
							
								<linearGradient id="SVGID_00000071545993743999453180000015287728747498998420_" gradientUnits="userSpaceOnUse" x1="193.3292" y1="245.7764" x2="182.4592" y2="225.0564" gradientTransform="matrix(1 0 0 -1 0 306)">
								<stop  offset="0.35" style="stop-color:#BEF6F4"/>
								<stop  offset="0.5" style="stop-color:#3AE4DF"/>
								<stop  offset="0.64" style="stop-color:#00AFC9"/>
							</linearGradient>
							<circle style="fill:url(#SVGID_00000071545993743999453180000015287728747498998420_);" cx="187.9" cy="70.6" r="11.8"/>
							
								<linearGradient id="SVGID_00000016774392256237513270000002358987556011549076_" gradientUnits="userSpaceOnUse" x1="192.8588" y1="246.8163" x2="183.0188" y2="224.2464" gradientTransform="matrix(1 0 0 -1 0 306)">
								<stop  offset="0" style="stop-color:#84EEEB"/>
								<stop  offset="1" style="stop-color:#3AE4DF"/>
							</linearGradient>
							<path style="fill:url(#SVGID_00000016774392256237513270000002358987556011549076_);" d="M187.9,82.1
								c-6.3,0-11.4-5.1-11.4-11.4s5.1-11.4,11.4-11.4s11.4,5.1,11.4,11.4C199.3,76.9,194.2,82.1,187.9,82.1z"/>
						</g>
						<g>
							<path class="st1" d="M273.4,68.1h-62.4c-1,0-1.8-0.8-1.8-1.8c0-1,0.8-1.8,1.8-1.8h62.4c1,0,1.8,0.8,1.8,1.8
								C275.2,67.3,274.4,68.1,273.4,68.1z"/>
							<path class="st1" d="M324.9,68.1h-43.1c-1,0-1.8-0.8-1.8-1.8c0-1,0.8-1.8,1.8-1.8h43.1c1,0,1.8,0.8,1.8,1.8
								C326.7,67.3,325.9,68.1,324.9,68.1z"/>
							<path class="st1" d="M233.2,77.4h-22.3c-1,0-1.8-0.8-1.8-1.8c0-1,0.8-1.8,1.8-1.8h22.3c1,0,1.8,0.8,1.8,1.8
								C235.1,76.6,234.2,77.4,233.2,77.4z"/>
						</g>
					</g>
				</g>
				<g>
					
						<linearGradient id="SVGID_00000183950230348082923890000015909513899645298622_" gradientUnits="userSpaceOnUse" x1="109.2997" y1="279.3964" x2="85.9997" y2="241.6864" gradientTransform="matrix(1 0 0 -1 0 306)">
						<stop  offset="0.35" style="stop-color:#BEF6F4"/>
						<stop  offset="0.5" style="stop-color:#3AE4DF"/>
						<stop  offset="0.64" style="stop-color:#00AFC9"/>
					</linearGradient>
					<path style="fill:url(#SVGID_00000183950230348082923890000015909513899645298622_);" d="M115.3,27.6H80.8
						c-3.1,0-5.7,2.5-5.7,5.7v23.1c0,3.1,2.5,5.7,5.7,5.7h12.6l4.6,4.6l4.6-4.6h12.6c3.1,0,5.7-2.5,5.7-5.7V33.3
						C120.9,30.1,118.4,27.6,115.3,27.6z"/>
					
						<linearGradient id="SVGID_00000070832588352865697740000016677575494355720354_" gradientUnits="userSpaceOnUse" x1="109.0561" y1="279.6725" x2="86.146" y2="241.1626" gradientTransform="matrix(1 0 0 -1 0 306)">
						<stop  offset="0" style="stop-color:#84EEEB"/>
						<stop  offset="1" style="stop-color:#3AE4DF"/>
					</linearGradient>
					<path style="fill:url(#SVGID_00000070832588352865697740000016677575494355720354_);" d="M93.6,61.7H80.8
						c-2.9,0-5.3-2.4-5.3-5.3V33.3c0-2.9,2.4-5.3,5.3-5.3h34.5c2.9,0,5.3,2.4,5.3,5.3v23.1c0,2.9-2.4,5.3-5.3,5.3h-12.8L98,66.2
						C98,66.2,93.6,61.7,93.6,61.7z"/>
					<path class="st0" d="M100.4,50.1L98,51.6l-2.4-1.5c-6-3.9-6-6.6-6-7.7c0-2.4,2-4.4,4.4-4.4c1.7,0,3.2,1,4,2.5
						c0.7-1.5,2.2-2.5,4-2.5c2.4,0,4.4,2,4.4,4.4C106.4,43.5,106.4,46.2,100.4,50.1L100.4,50.1z"/>
				</g>
				<g>
					
						<linearGradient id="SVGID_00000106128985411870724310000011839153138493280439_" gradientUnits="userSpaceOnUse" x1="69.1218" y1="98.0351" x2="52.2718" y2="60.9551" gradientTransform="matrix(1 0 0 -1 0 306)">
						<stop  offset="0.35" style="stop-color:#BEF6F4"/>
						<stop  offset="0.5" style="stop-color:#3AE4DF"/>
						<stop  offset="0.64" style="stop-color:#00AFC9"/>
					</linearGradient>
					<path style="fill:url(#SVGID_00000106128985411870724310000011839153138493280439_);" d="M44.4,212.7h34.6c2.5,0,4.5,2,4.5,4.5
						v14.4c0,2.5-2,4.5-4.5,4.5h-3.7v5.9l-5.5-5.9H44.4c-2.5,0-4.5-2-4.5-4.5v-14.4C39.9,214.7,41.9,212.7,44.4,212.7z"/>
					
						<linearGradient id="SVGID_00000032624100198267803330000009898856071348878248_" gradientUnits="userSpaceOnUse" x1="73.5845" y1="98.5532" x2="53.3545" y2="69.7932" gradientTransform="matrix(1 0 0 -1 0 306)">
						<stop  offset="0" style="stop-color:#84EEEB"/>
						<stop  offset="1" style="stop-color:#3AE4DF"/>
					</linearGradient>
					<path style="fill:url(#SVGID_00000032624100198267803330000009898856071348878248_);" d="M70,235.7H44.4
						c-2.3,0-4.1-1.8-4.1-4.1v-14.4c0-2.3,1.8-4.1,4.1-4.1h34.6c2.3,0,4.1,1.8,4.1,4.1v14.4c0,2.3-1.8,4.1-4.1,4.1h-4.1v5.3
						L70,235.7z"/>
					<path class="st54" d="M72.7,221.3c1.6,0,3,1.3,3,3s-1.3,3-3,3c-1.6,0-3-1.3-3-3S71.1,221.3,72.7,221.3z M58.7,224.3
						c0,1.6,1.3,3,3,3c1.7,0,3-1.3,3-3s-1.3-3-3-3S58.7,222.6,58.7,224.3z M47.6,224.3c0,1.6,1.3,3,3,3c1.7,0,3-1.3,3-3s-1.3-3-3-3
						C48.9,221.3,47.6,222.6,47.6,224.3z"/>
				</g>
				<g>
					
						<radialGradient id="SVGID_00000085235609272167002000000009963343479486415766_" cx="255.162" cy="76.335" r="13.55" gradientTransform="matrix(1 0 0 -1 0 306)" gradientUnits="userSpaceOnUse">
						<stop  offset="0.43" style="stop-color:#64EAE6"/>
						<stop  offset="0.55" style="stop-color:#67EAE6"/>
						<stop  offset="0.66" style="stop-color:#71EBE8"/>
						<stop  offset="0.75" style="stop-color:#83EEEA"/>
						<stop  offset="0.85" style="stop-color:#9BF1EE"/>
						<stop  offset="0.94" style="stop-color:#BAF5F3"/>
						<stop  offset="0.97" style="stop-color:#CAF8F6"/>
					</radialGradient>
					<path style="fill:url(#SVGID_00000085235609272167002000000009963343479486415766_);" d="M267.1,229.8
						C267.1,229.8,267.1,229.8,267.1,229.8c0-0.1,0-0.4-0.1-0.8c0,0,0-0.1,0-0.1c0-0.1,0-0.1,0-0.2c-0.2-1.4-0.7-2.7-1.5-3.9l0,0
						c-0.1-0.1-0.2-0.2-0.2-0.4l0,0c-0.4-0.6-0.9-1.1-1.4-1.7c-0.2-0.2-0.5-0.5-0.8-0.7c-0.2-0.1-0.4-0.3-0.5-0.4c0,0,0,0,0,0l0,0
						c0,0-0.1,0-0.1-0.1c-0.1-0.1-0.2-0.2-0.4-0.2l0,0c0,0,0,0,0,0c-0.1,0-0.1-0.1-0.2-0.1c0,0-0.1,0-0.1-0.1s0,0-0.1-0.1
						c0,0,0,0-0.1,0c-0.4-0.2-0.9-0.4-1.3-0.6c-0.1-0.1-0.2-0.1-0.3-0.1l-0.1,0l-0.1,0c0,0,0,0,0,0h0c0,0-0.1,0-0.1-0.1h0
						c0,0,0,0,0,0l-0.1,0c0,0-0.1,0-0.1,0l-0.1,0c0,0,0,0-0.1,0c0,0,0,0,0,0c0,0,0,0,0,0c0,0,0,0,0,0l-0.1,0c0,0-0.1,0-0.1,0
						s-0.1,0-0.1,0l0,0c0,0,0,0-0.1,0c0,0-0.1,0-0.1,0l-0.1,0c0,0-0.1,0-0.1,0c0,0,0,0,0,0c0,0,0,0-0.1,0h-0.1l-0.1,0l0,0h0
						c0,0,0,0,0,0c0,0-0.1,0-0.1,0c0,0,0,0-0.1,0l0,0c0,0-0.1,0-0.1,0h-0.1c0,0,0,0,0,0c0,0-0.1,0-0.1,0c0,0-0.1,0-0.1,0
						c0,0-0.1,0-0.1,0h-0.1c0,0,0,0,0,0l0,0c0,0-0.1,0-0.1,0c-0.1,0-0.1,0-0.1,0c0,0-0.1,0-0.1,0c0,0-0.1,0-0.1,0c0,0-0.1,0-0.1,0
						c0,0,0,0-0.1,0h-0.1c0,0,0,0,0,0c0,0,0,0-0.1,0c-0.2,0-0.4,0-0.6,0c-0.1,0-0.1,0-0.1,0s-0.1,0-0.1,0c0,0-0.1,0-0.1,0
						c-0.1,0-0.1,0-0.2,0c0,0-0.1,0-0.1,0c-0.1,0-0.2,0-0.3,0c0,0-0.1,0-0.1,0l0,0c0,0,0,0,0,0c0,0,0,0,0,0c-0.1,0-0.1,0-0.2,0
						c-0.1,0-0.1,0-0.1,0c-0.1,0-0.2,0-0.3,0.1c-0.3,0.1-0.6,0.1-0.9,0.2c-0.2,0.1-0.3,0.1-0.5,0.2c-0.8,0.3-1.6,0.7-2.4,1.2l0,0
						l0,0c-0.1,0.1-0.1,0.1-0.2,0.1c0,0,0,0,0,0c-0.1,0.1-0.2,0.2-0.4,0.3c0,0,0,0,0,0h0c0,0,0,0,0,0c0,0,0,0,0,0c0,0,0,0,0,0
						c0,0-0.1,0.1-0.1,0.1c-0.1,0.1-0.1,0.1-0.2,0.2c0,0-0.1,0.1-0.1,0.1c-0.1,0.1-0.1,0.1-0.2,0.2l0,0l0,0c0,0,0,0,0,0.1
						c-0.3,0.3-0.5,0.5-0.6,0.6c-0.1,0.1-0.2,0.2-0.3,0.4c-0.1,0.1-0.1,0.2-0.2,0.3c0,0,0,0,0,0v0c-0.2,0.2-0.3,0.4-0.5,0.7l0,0
						c0,0,0,0,0,0c0,0,0,0,0,0c-0.1,0.1-0.2,0.2-0.2,0.4c-0.1,0.1-0.1,0.2-0.2,0.3l-0.2,0.4c-0.1,0.1-0.1,0.2-0.2,0.4
						c-0.1,0.2-0.2,0.5-0.3,0.8l0,0l0,0c-0.1,0.3-0.2,0.6-0.3,0.8l0,0v0c-0.1,0.4-0.2,0.7-0.2,0.9c-0.1,1-0.1,1.1-0.2,1.7
						c0,0.8,0.1,1.4,0.1,1.7c0.1,0.8,0.3,1.4,0.4,1.6c0.2,0.7,0.4,1.1,0.6,1.6c0.1,0.2,0.2,0.4,0.3,0.6c0.1,0.2,0.3,0.5,0.5,0.7
						c0,0,0,0.1,0.1,0.1c0.2,0.2,0.4,0.6,0.6,0.8c0.1,0.2,0.4,0.4,0.5,0.6c0.2,0.2,0.4,0.4,0.6,0.5l0,0c0.2,0.2,0.3,0.2,0.4,0.4
						c0.2,0.2,0.4,0.3,0.7,0.5l0,0c0.1,0.1,0.1,0.1,0.2,0.1c0.1,0.1,0.2,0.1,0.2,0.1c0,0,0.1,0.1,0.2,0.1c0,0,0,0,0,0
						c0.1,0,0.1,0.1,0.2,0.1c0,0,0,0,0.1,0c0.3,0.1,0.6,0.3,0.9,0.4c0.1,0,0.2,0.1,0.3,0.1c0,0,0.1,0,0.1,0l0.2,0.1c0,0,0.1,0,0.1,0
						h0.1v0l0.1,0c0,0,0.1,0,0.1,0l0.1,0c0,0,0,0,0,0c0.5,0.1,0.9,0.2,1.3,0.3h0c0,0,0.1,0,0.1,0c0,0,0,0,0,0c0,0,0.1,0,0.1,0l0.2,0
						c0.1,0,0.2,0,0.4,0c0.1,0,0.2,0,0.3,0l0,0l0,0c0.1,0,0.1,0,0.2,0c0.1,0,0.3,0,0.5,0s0.4,0,0.5,0c0.3,0,0.8-0.1,1.1-0.1
						c0.2,0,0.6-0.1,0.8-0.2c0.1,0,0.1,0,0.2-0.1c0.2-0.1,0.4-0.1,0.6-0.2l0.2-0.1c0.2-0.1,0.3-0.1,0.5-0.2l0.1,0
						c0.2-0.1,0.4-0.2,0.6-0.3c0.1,0,0.2-0.1,0.2-0.1c0.2-0.1,0.5-0.3,0.7-0.4c0,0,0,0,0,0c0.2-0.1,0.4-0.2,0.5-0.4
						c0,0,0.1-0.1,0.1-0.1l0.2-0.1c0.1,0,0.1-0.1,0.1-0.1l0.3-0.2c0.1-0.1,0.3-0.3,0.6-0.6c0,0,0,0,0,0l0,0c0.1-0.2,0.3-0.4,0.5-0.6
						c0,0,0,0,0,0l0,0c0.2-0.2,0.5-0.6,0.9-1.2v0c0.1-0.1,0.2-0.3,0.2-0.4l0,0l0,0c0-0.1,0.1-0.1,0.1-0.2c0.1-0.1,0.1-0.2,0.1-0.3
						c0,0,0-0.1,0-0.1c0.1-0.1,0.1-0.3,0.2-0.4c0.1-0.2,0.2-0.4,0.2-0.6l0,0c0.1-0.3,0.2-0.6,0.3-1c0.1-0.2,0.1-0.4,0.1-0.6
						c0-0.2,0.1-0.4,0.1-0.7c0-0.1,0-0.1,0-0.1c0-0.3,0.1-0.6,0.1-1c0,0,0,0,0,0v0C267.1,230.4,267.1,230.1,267.1,229.8L267.1,229.8
						z"/>
					<g>
						<defs>
							<path id="SVGID_00000084506188947742367580000008047933246749387420_" d="M245.7,229.9C245.7,229.9,245.7,229.9,245.7,229.9
								c0-0.1,0-0.4,0.1-0.8c0,0,0-0.1,0-0.1c0-0.1,0-0.1,0-0.2c0.2-1.4,0.7-2.7,1.4-3.9l0,0c0.1-0.1,0.2-0.3,0.2-0.4l0,0
								c0.4-0.6,0.9-1.2,1.4-1.7c0.2-0.2,0.5-0.5,0.8-0.7c0.2-0.1,0.4-0.3,0.5-0.4c0,0,0,0,0,0l0,0c0,0,0.1,0,0.1-0.1
								c0.1-0.1,0.2-0.2,0.4-0.2l0,0c0,0,0,0,0,0c0.1,0,0.1-0.1,0.2-0.1c0,0,0.1,0,0.1-0.1s0.1,0,0.1-0.1c0,0,0,0,0.1,0
								c0.4-0.2,0.9-0.4,1.3-0.6c0.1-0.1,0.2-0.1,0.3-0.1l0.1,0l0.1,0c0,0,0,0,0,0h0c0,0,0.1,0,0.1-0.1h0c0,0,0,0,0,0l0.1,0
								c0,0,0.1,0,0.1,0l0.1,0c0,0,0,0,0.1,0c0,0,0,0,0,0c0,0,0,0,0,0c0,0,0,0,0,0l0.1,0c0,0,0.1,0,0.1,0c0,0,0.1,0,0.1,0l0,0
								c0,0,0,0,0.1,0c0,0,0.1,0,0.1,0l0.1,0c0,0,0.1,0,0.1,0c0,0,0,0,0,0c0,0,0.1,0,0.1,0h0.1l0.1,0l0,0h0c0,0,0,0,0,0
								c0,0,0.1,0,0.1,0c0,0,0,0,0.1,0l0,0c0,0,0.1,0,0.1,0h0.1c0,0,0,0,0.1,0s0.1,0,0.1,0c0,0,0.1,0,0.1,0c0,0,0.1,0,0.1,0h0.1
								c0,0,0,0,0,0l0,0c0,0,0.1,0,0.1,0c0.1,0,0.1,0,0.1,0c0,0,0.1,0,0.1,0c0,0,0.1,0,0.1,0c0,0,0.1,0,0.1,0c0,0,0.1,0,0.1,0h0.1
								c0,0,0,0,0.1,0s0,0,0.1,0c0.2,0,0.4,0,0.6,0c0,0,0.1,0,0.1,0c0.1,0,0.1,0,0.1,0c0,0,0.1,0,0.1,0c0.1,0,0.1,0,0.2,0
								c0,0,0,0,0.1,0c0.1,0,0.2,0,0.3,0c0,0,0.1,0,0.1,0l0,0c0,0,0,0,0,0c0,0,0,0,0,0c0.1,0,0.1,0,0.2,0c0,0,0.1,0,0.1,0
								c0.1,0,0.2,0,0.3,0.1c0.3,0.1,0.6,0.1,0.9,0.2c0.2,0.1,0.3,0.1,0.5,0.2c0.8,0.3,1.6,0.7,2.4,1.2l0,0l0,0
								c0.1,0.1,0.1,0.1,0.2,0.1c0,0,0,0,0,0c0.1,0.1,0.2,0.2,0.4,0.3c0,0,0,0,0,0h0c0,0,0,0,0,0c0,0,0,0,0,0c0,0,0,0,0,0
								c0,0,0.1,0.1,0.1,0.1c0.1,0.1,0.1,0.1,0.2,0.2c0,0,0.1,0.1,0.1,0.1c0.1,0.1,0.1,0.1,0.2,0.2l0,0l0,0c0,0,0,0,0.1,0.1
								c0.3,0.3,0.5,0.5,0.5,0.5c0.1,0.1,0.2,0.2,0.3,0.3c0.1,0.1,0.1,0.2,0.2,0.3c0,0,0,0,0,0v0c0.2,0.2,0.3,0.4,0.5,0.6l0,0
								c0,0,0,0,0,0c0,0,0,0,0,0c0.1,0.1,0.2,0.2,0.2,0.4c0.1,0.1,0.1,0.2,0.2,0.3l0.2,0.4c0.1,0.1,0.1,0.2,0.2,0.4
								c0.1,0.2,0.2,0.5,0.3,0.8l0,0l0,0c0.1,0.3,0.2,0.6,0.3,0.8l0,0v0c0.1,0.4,0.2,0.7,0.2,0.9c0.1,1,0.2,1.1,0.2,1.7
								c0,0.8-0.1,1.4-0.1,1.7c-0.1,0.8-0.3,1.4-0.4,1.6c-0.2,0.7-0.4,1.2-0.6,1.6c-0.1,0.3-0.2,0.4-0.3,0.6
								c-0.1,0.2-0.3,0.5-0.5,0.7c0,0,0,0.1-0.1,0.1c-0.2,0.3-0.4,0.6-0.6,0.8c-0.1,0.2-0.4,0.4-0.5,0.6c-0.2,0.2-0.4,0.4-0.5,0.5
								l0,0c-0.2,0.2-0.3,0.2-0.4,0.4c-0.2,0.2-0.4,0.3-0.7,0.5l0,0c-0.1,0.1-0.1,0.1-0.2,0.1c-0.1,0.1-0.2,0.1-0.2,0.1
								c0,0-0.1,0.1-0.2,0.1c0,0,0,0,0,0c-0.1,0-0.1,0.1-0.2,0.1c0,0,0,0-0.1,0c-0.3,0.1-0.6,0.3-0.9,0.4c-0.1,0-0.2,0.1-0.3,0.1
								c0,0-0.1,0-0.1,0l-0.2,0.1c0,0-0.1,0-0.1,0l0,0l0,0l-0.1,0c0,0-0.1,0-0.1,0l-0.1,0c0,0,0,0,0,0c-0.5,0.1-0.9,0.2-1.3,0.3h0
								c0,0-0.1,0-0.1,0c0,0,0,0,0,0c0,0-0.1,0-0.1,0l-0.2,0c-0.1,0-0.2,0-0.4,0c-0.1,0-0.2,0-0.3,0l0,0l0,0c-0.1,0-0.1,0-0.2,0
								c-0.1,0-0.3,0-0.5,0s-0.4,0-0.5,0c-0.3,0-0.8-0.1-1.1-0.1c-0.2,0-0.6-0.1-0.8-0.2c-0.1,0-0.1,0-0.2-0.1
								c-0.2-0.1-0.4-0.1-0.6-0.2l-0.2-0.1c-0.2-0.1-0.3-0.1-0.5-0.2l-0.1,0c-0.2-0.1-0.4-0.2-0.6-0.3c-0.1,0-0.2-0.1-0.2-0.1
								c-0.2-0.1-0.5-0.3-0.7-0.4c0,0,0,0,0,0c-0.2-0.1-0.4-0.2-0.5-0.4c0,0-0.1-0.1-0.1-0.1l-0.2-0.1c-0.1,0-0.1-0.1-0.2-0.1
								l-0.3-0.2c-0.1-0.1-0.3-0.3-0.6-0.6c0,0,0,0,0,0l0,0c-0.1-0.2-0.3-0.3-0.5-0.6c0,0,0,0,0,0l0,0c-0.2-0.2-0.5-0.6-0.9-1.2
								c0,0,0,0,0,0c-0.1-0.1-0.2-0.3-0.2-0.4l0,0l0,0c0-0.1-0.1-0.1-0.1-0.2c-0.1-0.1-0.1-0.2-0.1-0.3c0,0,0-0.1,0-0.1
								c-0.1-0.1-0.1-0.3-0.2-0.4c-0.1-0.2-0.2-0.4-0.2-0.6l0,0c-0.1-0.3-0.2-0.6-0.3-1c-0.1-0.2-0.1-0.4-0.1-0.6
								c0-0.2-0.1-0.4-0.1-0.7c0-0.1,0-0.1,0-0.1c0-0.3-0.1-0.6-0.1-1c0,0,0,0,0,0v0C245.6,230.5,245.6,230.2,245.7,229.9
								L245.7,229.9z"/>
						</defs>
						<clipPath id="SVGID_00000064349476443634898370000017326343539340140991_">
							<use xlink:href="#SVGID_00000084506188947742367580000008047933246749387420_"  style="overflow:visible;"/>
						</clipPath>
						<g style="clip-path:url(#SVGID_00000064349476443634898370000017326343539340140991_);">
							<g class="st12">
								
									<image style="overflow:visible;enable-background:new    ;" width="373" height="371" xlink:href="21993CA7.png"  transform="matrix(0.4787 0 0 0.4787 167.7432 147.285)">
								</image>
							</g>
							<g>
								
									<image style="overflow:visible;enable-background:new    ;" width="353" height="348" xlink:href="21993CA9.png"  transform="matrix(0.48 0 0 0.48 171.3419 140.085)">
								</image>
								<g class="st13">
									
										<image style="overflow:visible;enable-background:new    ;" width="345" height="351" xlink:href="21993CAB.png"  transform="matrix(0.4786 0 0 0.4786 180.942 144.4092)">
									</image>
								</g>
							</g>
						</g>
					</g>
				</g>
				<g>
					<defs>
						<rect id="SVGID_00000130647656789030189700000006685990596783492777_" x="269.7" y="52.4" width="44.1" height="17.9"/>
					</defs>
					<clipPath id="SVGID_00000171709851800737576330000005612305011310400954_">
						<use xlink:href="#SVGID_00000130647656789030189700000006685990596783492777_"  style="overflow:visible;"/>
					</clipPath>
					<g style="clip-path:url(#SVGID_00000171709851800737576330000005612305011310400954_);">
						<g class="st6">
							
								<image style="overflow:visible;enable-background:new    ;" width="380" height="380" xlink:href="21993CAE.png"  transform="matrix(0.4787 0 0 0.4787 198.222 -41.355)">
							</image>
						</g>
					</g>
				</g>
				<g>
					
						<linearGradient id="SVGID_00000072250763446904063860000009077564429700957870_" gradientUnits="userSpaceOnUse" x1="300.4304" y1="275.5456" x2="290.8704" y2="250.3856" gradientTransform="matrix(1 0 0 -1 3.559229e-03 305.9949)">
						<stop  offset="0.36" style="stop-color:#9FA9FF"/>
						<stop  offset="0.5" style="stop-color:#909CFF"/>
						<stop  offset="0.65" style="stop-color:#7A88FF"/>
					</linearGradient>
					<circle style="fill:url(#SVGID_00000072250763446904063860000009077564429700957870_);" cx="295.4" cy="43.6" r="13.6"/>
					<path class="st7" d="M295.4,56.8c-7.3,0-13.2-5.9-13.2-13.2s5.9-13.2,13.2-13.2s13.2,5.9,13.2,13.2S302.7,56.8,295.4,56.8z"/>
					<g>
						<path class="st1" d="M300.1,38.9c0,2.6-2.1,4.7-4.7,4.7s-4.7-2.1-4.7-4.7c0-2.6,2.1-4.7,4.7-4.7S300.1,36.3,300.1,38.9z"/>
						<path class="st1" d="M295.4,56c3.6,0,6.8-1.5,9.1-4c-1.3-3.7-4.9-6.4-9.1-6.4s-7.7,2.7-9.1,6.4C288.6,54.5,291.9,56,295.4,56z
							"/>
					</g>
				</g>
			</g>
		</g>
	</g>
</g>
</svg>
