<?xml version="1.0" encoding="utf-8"?>
<!-- Generator: Adobe Illustrator 27.1.0, SVG Export Plug-In . SVG Version: 6.00 Build 0)  -->
<svg version="1.1" id="Layer_1" xmlns="http://www.w3.org/2000/svg" xmlns:xlink="http://www.w3.org/1999/xlink" x="0px" y="0px"
	 viewBox="0 0 918.6 515.1" style="enable-background:new 0 0 918.6 515.1;" xml:space="preserve">
<style type="text/css">
	.st0{fill:#FFFFFF;}
</style>
<g id="XMLID_1_">
	<path class="st0" d="M918.6,515.1H0c14.7-155.7,103.7-288.7,235.1-359.9l-76.2-132c-4.3-7.4-1.8-16.8,5.6-21.1s16.8-1.8,21.1,5.6
		l77.2,133.7c58.9-26.9,125.2-41.9,196.5-41.9s137.6,15,196.5,41.9L733,7.7c4.2-7.4,13.7-9.9,21-5.6s9.9,13.7,5.6,21.1l-76.2,132
		C814.9,226.4,903.9,359.4,918.6,515.1L918.6,515.1z M670.1,386.1c21.3,0,38.6-17.3,38.5-38.5c0-21.2-17.2-38.5-38.5-38.5
		c-21.2,0-38.5,17.2-38.5,38.5C631.6,368.8,648.8,386.1,670.1,386.1z M248.4,386.1c21.3,0,38.6-17.3,38.5-38.5
		c0-21.2-17.2-38.5-38.5-38.5c-21.2,0-38.5,17.2-38.5,38.5C209.9,368.8,227.1,386.1,248.4,386.1z"/>
</g>
</svg>
